<?xml version="1.0" standalone="no"?>
<!DOCTYPE svg PUBLIC "-//W3C//DTD SVG 20010904//EN"
 "http://www.w3.org/TR/2001/REC-SVG-20010904/DTD/svg10.dtd">
<svg version="1.0" xmlns="http://www.w3.org/2000/svg"
 width="1024.000000pt" height="1024.000000pt" viewBox="0 0 1024.000000 1024.000000"
 preserveAspectRatio="xMidYMid meet">
<metadata>
Created by potrace 1.11, written by Peter Selinger 2001-2013
</metadata>
<g transform="translate(0.000000,1024.000000) scale(0.100000,-0.100000)"
fill="#000000" stroke="none">
<path d="M7918 10226 c3 -5 -2 -7 -11 -3 -9 3 -18 0 -21 -9 -3 -8 -9 -14 -13
-13 -15 2 -53 -13 -53 -22 0 -5 -7 -5 -17 -2 -11 4 -14 3 -9 -5 5 -8 0 -12
-13 -12 -12 0 -21 -5 -21 -11 0 -5 -4 -7 -10 -4 -5 3 -10 1 -10 -5 0 -6 -4 -9
-9 -5 -5 3 -12 1 -16 -5 -3 -5 -15 -10 -26 -10 -13 0 -18 -4 -13 -12 5 -7 2
-9 -9 -5 -9 3 -18 0 -21 -9 -3 -9 -10 -13 -15 -10 -5 3 -14 -1 -21 -9 -7 -8
-16 -13 -20 -10 -5 3 -15 -2 -24 -11 -9 -8 -20 -13 -25 -10 -5 3 -12 -1 -15
-10 -4 -10 -14 -14 -26 -11 -11 3 -18 1 -17 -3 1 -4 0 -7 -3 -7 -3 1 -19 -8
-36 -20 -17 -12 -34 -20 -38 -16 -3 3 -6 1 -6 -5 0 -7 -3 -11 -7 -10 -5 1 -22
-5 -39 -15 -17 -9 -35 -13 -39 -9 -5 4 -5 1 -1 -5 4 -8 1 -13 -8 -13 -9 0 -16
-7 -16 -16 0 -8 -4 -13 -9 -10 -8 5 -16 -10 -26 -50 -2 -6 8 -32 20 -57 13
-25 21 -48 18 -51 -4 -3 2 -6 13 -6 14 0 15 -3 6 -9 -10 -6 -10 -10 3 -21 8
-7 15 -21 15 -31 0 -11 5 -19 10 -19 6 0 10 -9 10 -20 0 -11 5 -20 10 -20 6 0
10 -9 10 -20 0 -11 4 -20 10 -20 5 0 9 -3 8 -7 -4 -13 24 -73 34 -73 5 0 7 -4
4 -8 -5 -9 22 -69 43 -94 10 -12 19 -14 27 -8 8 7 16 5 24 -5 11 -13 15 -13
21 -3 5 7 14 13 21 13 27 2 68 18 68 27 0 5 8 8 18 6 10 -2 16 2 14 11 -2 8 3
11 12 8 8 -3 20 1 26 9 7 8 20 14 30 14 10 0 20 7 24 15 3 8 12 12 21 9 8 -4
15 -1 15 6 0 7 8 10 20 7 11 -3 18 -1 15 4 -3 4 6 11 20 15 13 3 22 10 19 15
-3 5 6 9 20 9 14 0 26 5 26 10 0 6 7 10 15 10 8 0 15 4 15 10 0 5 7 7 15 4 8
-3 17 0 20 8 3 8 14 14 25 15 11 1 27 9 36 17 9 9 19 14 24 11 5 -3 10 0 12 5
2 6 13 12 25 13 12 0 19 5 17 9 -5 8 0 10 28 12 15 1 74 57 76 71 0 5 3 20 6
33 3 13 1 20 -5 17 -5 -4 -9 2 -9 12 0 10 -7 27 -15 37 -8 10 -12 23 -9 27 3
5 0 9 -5 9 -6 0 -11 9 -11 20 0 11 -4 20 -10 20 -5 0 -10 9 -10 19 0 11 -5 21
-11 23 -8 3 -15 20 -18 50 -1 4 -8 14 -17 22 -8 9 -11 16 -4 16 6 0 2 10 -10
22 -11 12 -20 28 -20 35 0 7 -9 27 -20 45 -11 18 -20 41 -20 51 0 10 -4 15
-10 12 -5 -3 -10 1 -10 10 0 9 -4 13 -10 10 -5 -3 -10 0 -10 7 0 9 -3 9 -10
-2 -5 -8 -10 -10 -10 -4 0 7 -13 11 -29 10 -16 0 -27 -5 -23 -10z"/>
<path d="M7033 9785 c-18 -6 -47 -21 -64 -34 -18 -13 -29 -19 -25 -12 10 15 1
14 -16 -2 -12 -12 -67 -39 -78 -39 -3 0 -8 -6 -13 -13 -4 -8 -14 -12 -22 -9
-8 4 -15 1 -15 -5 0 -6 -7 -11 -16 -11 -8 0 -22 -7 -31 -15 -8 -8 -19 -13 -24
-10 -5 4 -9 1 -9 -4 0 -6 -9 -11 -20 -11 -10 0 -24 -8 -29 -17 -6 -10 -11 -14
-11 -10 0 4 -10 2 -22 -5 -13 -7 -27 -12 -31 -13 -4 0 -12 -7 -17 -15 -5 -8
-10 -12 -10 -8 0 4 -29 -8 -64 -27 -35 -19 -66 -31 -70 -28 -3 4 -6 1 -6 -5 0
-7 -7 -12 -17 -12 -9 0 -14 -3 -10 -6 3 -4 -2 -14 -13 -23 -10 -9 -20 -27 -20
-41 -3 -35 10 -71 23 -63 5 3 7 1 3 -5 -7 -12 13 -63 29 -74 5 -4 6 -8 2 -8
-5 0 2 -14 14 -32 13 -17 17 -28 10 -24 -8 6 -7 0 3 -16 9 -14 13 -28 9 -33
-5 -4 -3 -5 4 -1 7 4 14 -3 19 -16 3 -13 22 -54 40 -93 19 -38 34 -75 34 -81
0 -12 14 -20 63 -34 17 -5 27 -5 27 1 0 6 4 7 10 4 5 -3 21 1 34 10 14 9 31
13 37 9 7 -4 9 -3 6 2 -3 5 23 23 59 39 35 16 64 33 64 38 0 5 9 7 20 4 13 -3
24 1 30 14 6 10 14 18 18 18 15 -2 52 14 52 22 0 5 3 8 8 7 9 -3 145 64 153
75 3 5 8 8 10 7 8 -3 45 14 71 32 20 14 28 15 31 6 4 -9 6 -8 6 3 1 9 12 21
26 27 14 6 25 16 25 22 0 6 5 8 12 4 7 -5 9 -2 5 8 -3 9 0 21 6 27 8 8 8 14 2
19 -6 4 -12 16 -13 27 -2 11 -8 22 -13 23 -5 2 -9 10 -9 18 0 7 -9 29 -19 48
-11 19 -17 37 -14 40 4 3 1 6 -6 6 -7 0 -9 5 -6 10 3 6 1 10 -4 10 -6 0 -11 7
-11 15 0 8 -4 15 -10 15 -5 0 -7 6 -4 14 3 7 -2 20 -10 29 -9 9 -16 19 -16 24
0 5 -9 26 -20 47 -10 22 -17 43 -14 47 3 5 -3 9 -12 9 -10 0 -15 3 -11 6 8 9
-17 57 -39 75 -11 9 -15 9 -10 2 8 -15 2 -16 -22 -5 -10 5 -31 4 -49 -3z"/>
<path d="M8260 9573 c0 -7 -7 -10 -15 -7 -8 4 -15 1 -15 -5 0 -6 -7 -8 -15 -5
-8 4 -15 1 -15 -7 0 -7 -3 -9 -7 -6 -3 4 -17 0 -30 -8 -13 -9 -23 -12 -23 -8
0 5 -5 0 -11 -10 -6 -9 -14 -15 -20 -12 -5 4 -9 1 -9 -5 0 -6 -4 -8 -10 -5 -5
3 -10 1 -10 -4 0 -6 -3 -10 -7 -9 -13 2 -47 -15 -61 -31 -11 -13 -12 -13 -6
-1 5 10 0 9 -14 -4 -17 -14 -22 -16 -22 -5 -1 8 -6 6 -13 -7 -7 -12 -18 -19
-24 -17 -7 3 -13 0 -13 -6 0 -6 -3 -10 -7 -10 -20 3 -34 -2 -28 -11 4 -6 -5
-10 -19 -10 -14 0 -26 -5 -26 -11 0 -6 -7 -9 -15 -5 -8 3 -15 2 -15 -2 0 -9
-71 -47 -82 -44 -5 1 -8 -3 -8 -9 0 -6 -7 -9 -15 -5 -8 3 -15 1 -15 -4 0 -5
-16 -16 -35 -25 -38 -15 -70 -42 -70 -59 -1 -6 -6 -10 -13 -8 -7 1 -12 -2 -12
-8 0 -5 6 -10 13 -10 8 0 7 -4 -3 -10 -11 -7 -11 -10 -2 -10 7 0 11 -4 8 -8
-3 -5 4 -23 15 -40 10 -18 19 -39 19 -47 0 -8 5 -15 10 -15 6 0 10 -9 10 -21
0 -11 9 -32 20 -46 11 -14 18 -29 15 -33 -3 -4 2 -13 10 -20 8 -7 12 -16 9
-21 -3 -5 0 -9 5 -9 6 0 11 -6 11 -12 0 -7 13 -39 29 -70 16 -31 26 -59 23
-62 -3 -3 0 -6 6 -6 7 0 12 -7 12 -15 0 -8 5 -15 11 -15 5 0 8 -4 5 -8 -3 -5
0 -9 7 -10 7 0 24 -3 40 -5 15 -2 30 0 33 5 3 4 9 6 13 3 5 -2 19 4 31 15 18
16 25 18 32 8 5 -10 8 -8 8 5 0 9 7 18 15 18 34 3 40 5 38 17 -2 6 4 9 12 6 8
-4 15 -1 15 5 0 6 9 11 20 11 11 0 20 5 20 10 0 6 3 9 8 9 19 -3 33 2 27 10
-3 6 4 8 15 6 11 -2 18 0 15 6 -4 5 1 9 9 9 9 0 16 6 16 13 0 8 3 7 10 -3 8
-12 10 -12 15 2 4 9 20 20 36 23 16 4 33 14 39 23 5 9 10 13 10 8 0 -5 7 -3
15 4 8 6 19 9 25 5 5 -3 10 -2 10 4 0 6 11 13 25 17 14 3 25 10 25 14 0 4 12
11 27 15 15 3 30 11 34 16 3 6 15 11 27 12 11 0 20 4 19 7 -1 3 2 6 6 7 12 2
47 44 48 57 1 6 2 18 3 26 1 8 -3 24 -8 35 -6 11 -10 24 -11 28 0 4 -6 11 -13
16 -8 5 -13 11 -13 15 3 22 -1 36 -14 50 -9 8 -15 17 -14 18 4 7 -13 48 -20
48 -4 0 -8 7 -9 15 -1 8 -3 22 -4 30 -1 8 -8 17 -15 19 -8 3 -11 10 -8 16 3 5
1 10 -5 10 -7 0 -10 7 -6 15 3 8 1 15 -4 15 -8 0 -23 33 -25 52 0 4 -6 13 -12
20 -7 6 -13 20 -13 29 0 16 -13 26 -34 27 -5 0 -13 6 -17 14 -7 10 -9 10 -9
-2 0 -13 -1 -13 -10 0 -6 9 -10 11 -10 3z"/>
<path d="M6180 9351 c0 -6 -7 -11 -16 -11 -19 0 -202 -89 -210 -101 -3 -5 -9
-7 -14 -4 -5 3 -15 -1 -23 -9 -8 -8 -26 -18 -41 -22 -14 -3 -26 -10 -26 -15 0
-5 -3 -9 -7 -8 -14 2 -53 -13 -53 -20 0 -4 -17 -13 -37 -20 -21 -8 -50 -22
-65 -33 -16 -11 -32 -16 -38 -13 -5 3 -10 2 -10 -3 0 -11 -51 -36 -69 -33 -7
1 -10 -2 -7 -8 4 -5 -3 -12 -14 -16 -33 -11 -78 -95 -50 -95 5 0 7 -7 4 -15
-4 -8 -1 -15 6 -15 6 0 8 -4 5 -10 -3 -5 -1 -10 4 -10 6 0 11 -9 11 -20 0 -11
5 -20 12 -20 6 0 8 -3 5 -7 -4 -3 -2 -12 4 -20 6 -7 8 -13 3 -13 -5 0 -4 -4 1
-8 8 -6 47 -77 50 -92 0 -3 6 -15 13 -27 7 -13 10 -23 7 -23 -4 0 1 -7 9 -16
9 -8 14 -19 11 -24 -3 -5 0 -10 5 -12 6 -2 12 -10 13 -18 2 -8 7 -22 12 -30 5
-8 10 -21 11 -28 3 -19 36 -42 52 -37 6 2 12 0 12 -5 0 -5 10 -6 23 -4 12 3
28 6 35 6 6 1 12 5 12 10 0 5 5 6 10 3 6 -3 10 -1 10 5 0 6 4 9 9 6 5 -3 14 1
21 9 7 8 16 12 21 9 5 -3 9 0 9 6 0 6 5 8 10 5 6 -3 10 -1 10 5 0 7 7 10 15 6
8 -3 15 -2 15 2 0 9 71 47 83 44 4 -1 7 2 7 8 0 6 8 10 19 10 10 0 24 7 31 15
7 8 16 12 21 9 5 -3 12 1 15 10 3 9 12 12 21 9 11 -4 14 -2 9 5 -4 8 0 12 11
12 11 0 25 6 32 13 11 10 12 9 6 -3 -4 -8 2 -5 14 8 12 12 31 22 42 22 12 0
18 4 13 11 -4 7 -1 10 7 7 8 -3 20 2 27 11 10 12 12 13 6 1 -5 -8 9 -2 31 14
21 16 35 23 30 15 -5 -8 2 -5 16 6 41 33 64 59 61 67 -1 5 3 8 9 8 5 0 7 6 3
12 -5 7 -9 21 -9 31 -1 10 -8 23 -16 28 -8 5 -10 9 -5 9 4 0 1 11 -8 25 -9 14
-14 30 -11 35 3 5 0 12 -5 15 -10 6 -21 28 -31 60 -1 6 -9 16 -16 23 -7 8 -11
18 -8 23 4 5 1 9 -5 9 -6 0 -9 4 -6 9 4 5 1 11 -4 13 -6 2 -12 10 -13 18 -2 8
-7 22 -12 30 -5 8 -10 21 -12 29 -1 8 -7 17 -13 21 -7 4 -11 9 -9 11 5 9 -13
49 -22 49 -6 0 -7 5 -4 10 6 10 -9 19 -37 24 -7 1 -19 5 -25 9 -8 5 -13 4 -13
-2z"/>
<path d="M7340 9116 c-5 -5 -10 -7 -10 -2 0 4 -7 0 -16 -8 -8 -9 -20 -14 -25
-11 -5 4 -9 3 -9 -2 0 -4 -34 -23 -75 -42 -41 -19 -75 -39 -75 -44 0 -4 -4 -5
-10 -2 -5 3 -10 1 -10 -5 0 -6 -4 -9 -9 -5 -5 3 -12 1 -16 -5 -3 -5 -15 -10
-26 -10 -13 0 -18 -4 -13 -12 5 -8 2 -9 -9 -5 -10 3 -17 2 -17 -4 0 -6 -4 -8
-9 -5 -5 4 -11 2 -13 -3 -1 -5 -10 -11 -18 -13 -8 -2 -17 -6 -20 -10 -3 -3
-12 -8 -20 -10 -8 -2 -21 -9 -28 -16 -8 -7 -18 -10 -23 -7 -5 4 -9 2 -9 -4 0
-5 -10 -13 -22 -17 -13 -3 -35 -15 -50 -26 -16 -11 -28 -15 -28 -9 0 6 -9 3
-20 -6 -45 -39 -70 -66 -65 -71 3 -3 0 -11 -6 -19 -9 -10 -8 -13 0 -13 7 0 9
-4 6 -10 -3 -5 2 -21 11 -35 9 -14 13 -25 9 -25 -3 0 1 -7 9 -16 9 -8 14 -20
11 -25 -4 -5 -1 -9 4 -9 6 0 11 -9 11 -20 0 -11 5 -20 10 -20 6 0 10 -9 10
-20 0 -11 5 -20 10 -20 6 0 10 -9 10 -20 0 -11 5 -20 10 -20 6 0 10 -9 10 -20
0 -11 4 -20 8 -20 5 0 9 -6 9 -12 1 -22 70 -158 77 -151 3 4 6 0 6 -8 0 -9 13
-15 41 -16 24 -2 38 1 34 7 -3 6 1 7 9 4 9 -3 16 -1 16 6 0 6 4 9 9 5 5 -3 16
2 25 11 9 8 20 12 26 9 5 -3 10 -1 10 5 0 7 6 10 12 8 12 -4 20 0 52 29 8 7
16 9 20 6 3 -4 6 -1 6 6 0 7 4 10 9 6 5 -3 12 -1 16 5 3 5 15 10 26 10 11 0
18 4 15 9 -3 5 1 12 10 15 9 4 13 2 8 -5 -7 -12 43 18 64 38 17 16 26 17 16 2
-7 -13 48 21 57 35 4 5 12 5 18 2 6 -4 11 -4 11 1 0 8 54 36 66 33 4 -1 10 2
13 7 3 5 28 20 56 34 59 29 85 49 85 66 0 7 4 13 10 13 5 0 7 7 4 15 -4 9 0
15 7 15 9 0 10 3 4 8 -17 12 -49 65 -34 57 8 -5 6 1 -4 12 -9 11 -14 23 -10
26 3 4 1 7 -5 7 -7 0 -12 3 -11 8 2 15 -14 52 -22 52 -5 0 -9 6 -9 13 0 7 -18
48 -40 92 -22 44 -40 86 -40 93 0 7 -7 15 -15 18 -8 4 -12 10 -9 15 8 13 -25
61 -36 54 -6 -4 -10 -2 -10 4 0 13 -66 11 -80 -3z"/>
<path d="M5261 8893 c-24 -8 -51 -21 -59 -29 -8 -8 -19 -13 -25 -11 -11 3 -19
-1 -50 -29 -7 -6 -20 -10 -30 -8 -9 1 -17 -2 -17 -6 0 -5 -9 -12 -20 -15 -11
-4 -17 -11 -14 -17 4 -7 2 -8 -4 -4 -6 4 -50 -13 -97 -38 -47 -25 -85 -42 -85
-38 0 4 -4 3 -8 -3 -4 -5 -18 -16 -31 -23 -19 -11 -22 -11 -16 0 5 7 -2 3 -14
-9 -20 -21 -28 -25 -47 -22 -4 0 -10 -4 -13 -9 -3 -6 -13 -12 -21 -14 -17 -4
-33 -15 -68 -48 -32 -29 -34 -60 -7 -114 10 -21 18 -44 18 -52 0 -7 4 -11 9
-8 4 3 8 1 8 -4 0 -5 14 -39 30 -76 17 -36 31 -69 32 -73 1 -5 8 -14 15 -22 8
-7 12 -20 9 -27 -3 -8 -2 -14 3 -14 4 0 18 -24 31 -52 31 -70 45 -82 89 -80
55 2 71 5 71 12 0 3 24 17 53 30 28 13 55 28 58 33 3 5 8 8 10 7 7 -3 63 21
77 33 8 6 21 12 30 13 8 2 19 9 23 16 5 7 9 10 9 5 0 -4 10 -1 23 8 13 8 27
12 30 8 4 -3 7 -1 7 5 0 7 6 12 14 12 7 0 19 7 26 15 6 8 15 14 18 13 12 -3
52 13 52 21 0 4 16 13 35 20 19 7 35 17 35 22 0 6 4 8 10 4 5 -3 31 8 57 25
26 16 44 30 40 30 -4 0 -2 6 5 14 7 8 16 12 19 10 3 -2 6 3 6 11 0 8 -4 15 -8
15 -4 0 -6 9 -4 20 2 11 -1 22 -6 25 -5 4 -7 10 -4 15 3 4 -2 11 -11 14 -9 4
-14 13 -10 21 3 8 2 15 -2 15 -10 0 -38 70 -34 83 1 5 -2 6 -8 2 -5 -3 -10 3
-10 14 0 10 -5 21 -10 23 -6 2 -12 13 -13 26 -1 12 -8 22 -17 22 -12 0 -12 2
-1 9 10 6 10 10 1 16 -12 7 -34 55 -32 68 1 4 -3 7 -9 7 -5 0 -7 5 -4 10 3 6
1 10 -5 10 -6 0 -8 5 -5 10 3 6 1 10 -5 10 -7 0 -10 6 -7 13 6 15 -24 37 -57
42 -11 2 -41 -3 -65 -12z"/>
<path d="M8532 8897 c-12 -7 -20 -16 -16 -19 3 -4 -3 -4 -15 -1 -13 3 -21 1
-21 -6 0 -7 -4 -9 -10 -6 -5 3 -10 1 -10 -5 0 -6 -4 -8 -10 -5 -5 3 -10 1 -10
-5 0 -7 -7 -10 -15 -6 -8 3 -15 2 -15 -3 0 -9 -51 -35 -62 -33 -5 1 -8 -3 -8
-9 0 -5 -4 -7 -10 -4 -5 3 -10 1 -10 -5 0 -6 -5 -8 -10 -5 -6 3 -13 0 -16 -9
-3 -8 -14 -13 -24 -11 -10 2 -21 -3 -24 -11 -3 -8 -14 -14 -25 -14 -11 0 -21
-3 -23 -7 -1 -5 -18 -16 -36 -25 -20 -11 -31 -13 -27 -5 4 6 -3 1 -15 -13 -12
-14 -18 -18 -14 -10 5 10 0 9 -14 -4 -12 -11 -22 -15 -22 -10 0 5 -7 0 -15
-10 -8 -11 -15 -16 -15 -12 0 4 -27 -7 -61 -25 -58 -31 -97 -71 -93 -96 1 -7
2 -22 3 -32 0 -11 8 -26 16 -34 8 -8 11 -18 7 -21 -3 -4 -2 -10 3 -14 12 -8
39 -64 37 -74 -1 -5 3 -8 9 -8 5 0 8 -4 4 -9 -3 -5 0 -15 7 -23 7 -7 15 -22
16 -33 2 -11 7 -22 11 -25 13 -10 40 -74 34 -84 -3 -5 -1 -6 5 -2 7 4 12 4 13
-1 4 -41 40 -107 60 -109 8 -1 16 -3 19 -4 13 -6 60 -6 60 0 0 7 71 35 83 32
4 -1 7 3 7 8 0 6 6 10 14 10 8 0 16 5 18 10 2 6 13 12 25 13 13 0 25 7 28 15
3 8 12 11 20 8 8 -3 15 -1 15 4 0 6 7 10 15 10 8 0 15 5 15 10 0 6 3 9 8 8 10
-2 66 25 73 36 4 5 12 5 18 2 6 -4 11 0 11 8 0 9 5 16 11 16 5 0 7 -6 3 -12
-4 -7 1 -6 12 3 24 21 87 54 97 51 4 -1 7 3 7 8 0 6 3 9 8 8 10 -2 65 24 73
35 3 5 9 8 13 8 19 -3 27 0 21 9 -3 5 5 12 19 16 26 6 48 47 43 80 -1 12 -11
34 -21 49 -10 15 -12 24 -5 19 7 -4 3 6 -9 23 -12 17 -22 34 -22 37 0 3 -21
49 -47 103 -26 54 -46 101 -45 106 1 4 -3 7 -9 7 -5 0 -7 5 -4 10 3 6 1 10 -4
10 -6 0 -11 9 -11 20 0 11 -5 20 -11 20 -5 0 -8 4 -5 9 9 14 -29 42 -65 47
-19 2 -44 -2 -57 -9z"/>
<path d="M6469 8681 c-8 -2 -19 -11 -26 -20 -9 -11 -12 -12 -13 -3 0 8 -17 2
-44 -17 -31 -22 -46 -27 -49 -18 -3 7 -6 5 -6 -5 -1 -11 -9 -18 -21 -18 -11 0
-20 -4 -20 -10 0 -5 -3 -9 -7 -8 -11 2 -67 -25 -74 -36 -4 -5 -12 -5 -18 -2
-6 4 -11 1 -11 -7 0 -7 -6 -14 -12 -14 -23 -1 -43 -8 -50 -17 -3 -5 -13 -11
-22 -12 -8 -1 -29 -12 -46 -24 -17 -12 -34 -20 -36 -17 -3 3 -14 -2 -25 -11
-11 -9 -23 -17 -27 -18 -26 -4 -71 -27 -66 -35 3 -5 -3 -9 -13 -9 -18 -1 -65
-30 -47 -30 5 0 1 -5 -9 -11 -9 -6 -15 -14 -12 -20 4 -5 2 -9 -3 -9 -5 0 -7
-11 -4 -25 2 -14 7 -25 11 -25 4 0 8 -10 8 -22 1 -13 7 -24 13 -26 5 -2 10
-12 10 -23 0 -10 4 -19 8 -19 5 0 15 -18 22 -40 7 -22 17 -40 22 -40 5 0 7 -4
3 -9 -3 -5 -1 -12 5 -16 6 -4 8 -11 5 -16 -4 -5 -1 -9 4 -9 6 0 11 -5 11 -11
0 -6 13 -38 29 -69 16 -32 27 -61 24 -64 -4 -3 0 -6 7 -6 7 0 11 -3 7 -6 -3
-4 0 -13 8 -20 7 -8 15 -19 17 -26 5 -14 98 -20 98 -6 0 5 5 6 10 3 6 -3 10
-1 10 5 0 6 4 9 9 6 5 -3 14 1 21 9 7 8 16 12 21 9 5 -3 9 0 9 5 0 6 3 10 8 9
11 -3 82 35 82 44 0 4 7 5 15 2 8 -4 15 -1 15 6 0 6 4 9 9 6 5 -3 14 1 21 9 7
8 16 12 21 9 5 -3 9 0 9 6 0 6 5 8 10 5 6 -3 10 -1 10 5 0 6 5 8 10 5 6 -3 13
0 16 8 2 7 11 14 19 15 8 1 22 3 30 4 8 1 15 5 15 10 0 9 52 32 58 26 2 -2 8
5 13 14 5 9 15 15 23 12 7 -3 19 2 26 10 7 9 16 13 21 10 5 -3 9 0 9 6 0 6 5
8 10 5 6 -3 10 -1 10 5 0 6 5 8 10 5 6 -3 10 -1 10 6 0 7 3 9 7 6 3 -4 12 1
20 11 10 11 12 12 8 2 -4 -8 3 -4 16 10 12 14 25 24 29 23 14 -4 15 90 1 95
-6 2 -11 12 -11 23 0 10 -4 19 -10 19 -5 0 -10 7 -10 15 0 9 -7 27 -16 40 -9
14 -13 25 -9 25 3 0 -1 7 -9 16 -9 8 -14 20 -11 25 4 5 1 9 -4 9 -6 0 -11 9
-11 20 0 11 -5 20 -11 20 -5 0 -8 4 -5 9 3 5 -1 14 -9 21 -8 7 -13 16 -10 20
3 5 -2 16 -11 24 -8 9 -13 16 -9 16 8 0 -47 103 -60 112 -5 4 -16 6 -23 3 -7
-3 -10 0 -7 5 6 10 -29 10 -56 1z"/>
<path d="M4403 8488 c-13 -6 -23 -14 -23 -17 0 -4 -10 -7 -22 -8 -11 -1 -24
-6 -27 -11 -3 -5 -31 -20 -61 -33 -30 -13 -61 -29 -68 -36 -8 -7 -18 -11 -23
-8 -5 4 -9 2 -9 -2 0 -9 -59 -37 -72 -34 -5 0 -8 -3 -8 -9 0 -5 -9 -10 -19
-10 -11 0 -21 -4 -23 -9 -1 -5 -10 -11 -18 -13 -8 -2 -18 -7 -21 -11 -3 -4
-15 -9 -27 -10 -11 0 -18 -5 -16 -9 5 -7 -10 -12 -28 -9 -5 0 -8 -3 -8 -8 0
-7 -31 -22 -70 -33 -3 -1 -11 -8 -18 -15 -7 -7 -22 -13 -33 -13 -10 0 -19 -4
-19 -9 0 -9 -54 -34 -76 -34 -7 0 -11 -4 -8 -8 2 -4 -12 -13 -31 -19 -20 -6
-32 -16 -29 -22 4 -6 -1 -8 -15 -3 -11 3 -21 2 -21 -2 0 -5 -22 -19 -50 -31
-27 -12 -50 -27 -50 -33 0 -5 5 -7 10 -4 6 4 10 -5 10 -19 0 -14 5 -26 11 -26
6 0 9 -6 6 -12 -2 -7 2 -17 9 -23 7 -5 14 -19 16 -30 2 -11 5 -22 8 -25 11
-11 53 -101 53 -115 0 -8 4 -12 9 -9 4 3 9 0 9 -5 3 -20 5 -26 24 -68 10 -24
22 -43 27 -43 4 0 7 -3 7 -7 -1 -5 -1 -19 0 -33 1 -20 3 -22 11 -10 8 12 10
12 10 -5 0 -11 9 -37 20 -58 11 -20 17 -37 14 -37 -3 0 2 -7 10 -16 9 -8 14
-20 11 -25 -4 -5 -1 -9 6 -9 7 0 9 -3 6 -7 -4 -3 0 -15 10 -25 9 -10 12 -18 8
-18 -4 0 0 -9 10 -20 10 -12 15 -26 11 -37 -4 -9 -4 -14 0 -10 6 6 33 -34 38
-58 5 -19 41 -90 49 -96 5 -3 9 -10 9 -15 0 -5 5 -20 11 -34 6 -14 10 -28 9
-32 -1 -5 2 -8 6 -8 4 0 14 -17 21 -37 8 -21 19 -45 27 -53 7 -8 12 -19 12
-23 0 -18 25 -66 38 -71 8 -3 14 -1 14 4 0 6 7 10 15 10 8 0 15 5 15 12 0 6 3
9 6 5 3 -3 30 7 59 23 29 16 56 26 59 23 3 -4 6 -1 6 6 0 7 5 9 10 6 6 -3 10
-2 10 4 0 9 26 21 44 20 5 0 12 3 15 9 3 5 38 24 76 42 39 18 73 38 77 44 4 6
8 8 8 3 0 -4 11 0 25 9 14 9 25 12 25 8 0 -5 4 -4 8 2 4 6 61 37 127 69 66 33
142 72 168 87 27 16 45 23 42 16 -4 -7 0 -5 8 4 8 10 17 15 20 11 4 -3 7 -1 7
6 0 7 5 9 10 6 6 -3 10 0 10 7 0 9 3 9 10 -2 8 -13 10 -12 10 3 0 9 7 17 15
17 9 0 15 9 15 25 0 14 -4 25 -10 25 -5 0 -10 9 -10 20 0 11 -5 20 -11 20 -5
0 -7 5 -4 10 3 6 1 10 -5 10 -6 0 -9 4 -5 9 3 5 1 12 -5 16 -5 3 -10 15 -10
25 0 10 -3 20 -7 22 -5 2 -23 35 -41 73 -19 39 -48 98 -65 133 -17 34 -30 69
-30 77 0 8 -4 12 -9 9 -7 -4 -12 12 -6 19 2 1 -8 19 -20 39 -13 21 -21 42 -17
48 3 5 -1 10 -9 10 -9 0 -15 3 -14 8 4 16 -26 81 -35 75 -6 -3 -7 -2 -4 4 3 5
-7 35 -22 66 -15 31 -26 59 -23 62 3 3 0 5 -7 5 -7 0 -9 5 -6 10 3 6 1 10 -4
10 -6 0 -11 7 -11 16 0 18 -30 75 -45 86 -5 4 -6 8 -1 8 5 0 3 7 -4 15 -7 8
-9 15 -5 15 5 0 0 9 -9 19 -10 11 -15 25 -11 30 3 6 3 11 -2 11 -9 0 -39 61
-35 73 1 4 -2 7 -8 7 -5 0 -10 7 -10 15 0 17 -16 18 -47 3z"/>
<path d="M7666 8458 c3 -4 -4 -8 -15 -8 -11 0 -23 -5 -26 -10 -4 -6 -11 -8
-16 -5 -5 4 -9 1 -9 -4 0 -6 -9 -11 -19 -11 -11 0 -23 -4 -26 -10 -3 -5 -36
-24 -73 -41 -37 -18 -70 -36 -73 -42 -4 -5 -11 -7 -17 -3 -6 3 -12 3 -14 -2
-1 -4 -48 -30 -103 -57 -55 -27 -103 -53 -107 -59 -4 -6 -13 -11 -20 -12 -22
-1 -84 -32 -98 -48 -7 -9 -18 -16 -25 -16 -6 0 -13 -8 -14 -17 -5 -42 -3 -76
5 -82 5 -3 11 -15 12 -26 2 -11 8 -23 14 -26 5 -3 10 -9 10 -12 0 -19 12 -47
20 -47 5 0 6 -4 3 -10 -3 -5 -2 -10 4 -10 6 0 8 -7 5 -15 -4 -8 -1 -15 6 -15
6 0 8 -4 5 -10 -3 -5 -1 -10 5 -10 6 0 8 -4 5 -10 -3 -5 -1 -10 5 -10 6 0 8
-4 5 -10 -3 -5 -1 -10 4 -10 6 0 11 -3 10 -7 -2 -16 14 -53 23 -53 5 0 6 -4 3
-10 -3 -5 -1 -10 5 -10 6 0 8 -4 5 -10 -3 -5 -2 -10 4 -10 6 0 8 -7 5 -15 -4
-8 1 -17 10 -21 9 -3 13 -10 10 -15 -7 -11 51 -71 60 -62 4 4 21 7 40 8 18 0
41 8 50 18 10 9 26 17 37 17 11 0 17 5 14 10 -5 8 5 12 30 10 3 -1 17 8 32 20
14 11 32 20 41 20 8 0 21 8 28 18 11 14 13 14 14 2 0 -10 3 -11 8 -4 9 15 101
64 119 64 8 0 11 5 7 12 -5 8 0 9 14 6 12 -4 20 -2 16 3 -3 5 0 9 6 9 7 0 26
10 43 22 17 12 27 16 22 7 -7 -11 -5 -11 11 1 10 9 42 27 69 40 28 13 55 31
62 39 7 9 13 12 13 8 0 -4 6 -2 14 5 8 7 12 16 9 21 -2 4 1 7 7 7 6 0 9 4 5 9
-3 5 -1 13 5 16 8 5 6 15 -4 31 -9 13 -16 30 -16 39 0 8 -4 15 -10 15 -5 0
-10 9 -10 20 0 11 -4 20 -10 20 -6 0 -9 3 -9 8 3 14 -23 72 -33 72 -5 0 -7 4
-3 9 3 5 -2 17 -11 25 -8 9 -13 16 -10 16 4 0 -5 22 -18 49 -14 27 -22 51 -19
55 4 3 1 6 -6 6 -7 0 -9 5 -6 10 3 6 2 10 -3 10 -6 0 -15 14 -21 31 -14 41
-51 75 -63 57 -4 -7 -8 -8 -8 -2 0 5 -11 10 -24 10 -14 0 -22 -4 -20 -8z"/>
<path d="M5590 8239 c0 -7 -39 -22 -52 -20 -5 1 -8 -4 -8 -10 0 -5 -4 -7 -10
-4 -5 3 -10 2 -10 -3 0 -9 -37 -25 -52 -23 -5 1 -8 -3 -8 -8 0 -10 -69 -37
-83 -33 -5 1 -6 -2 -2 -8 6 -9 -7 -14 -27 -11 -5 0 -8 -3 -8 -8 0 -7 -57 -34
-68 -31 -1 0 -10 -6 -18 -15 -9 -8 -20 -13 -25 -10 -5 4 -9 2 -9 -3 0 -6 -11
-13 -25 -16 -16 -4 -23 -11 -19 -18 5 -7 2 -9 -8 -5 -9 3 -21 0 -28 -6 -10 -9
-11 -9 -6 3 6 12 5 12 -6 -1 -14 -16 -48 -33 -60 -31 -5 1 -8 -2 -8 -8 0 -5
-7 -10 -15 -10 -8 0 -15 -5 -15 -11 0 -5 -4 -8 -9 -4 -5 3 -16 -2 -24 -10 -9
-8 -21 -15 -27 -15 -6 0 -9 -4 -6 -9 3 -5 -1 -11 -9 -15 -17 -6 -22 -86 -5
-86 6 0 10 -9 10 -19 0 -11 7 -27 16 -35 8 -9 13 -16 9 -16 -3 0 6 -21 20 -46
14 -25 23 -50 20 -55 -4 -5 -2 -9 3 -9 10 0 50 -83 42 -86 -3 -1 3 -11 14 -22
10 -12 19 -32 20 -46 0 -13 5 -24 11 -23 5 1 9 -4 10 -11 0 -8 8 -19 18 -26 9
-7 17 -18 17 -25 0 -10 21 -16 43 -12 4 1 16 3 26 4 11 2 26 9 35 16 13 11 16
11 16 0 1 -11 3 -11 13 1 17 22 72 56 61 39 -6 -12 -5 -12 8 -1 28 23 146 80
152 74 3 -3 6 0 6 7 0 7 4 10 9 7 5 -3 12 1 15 10 3 8 10 13 14 10 5 -3 20 2
33 12 13 9 30 17 38 19 8 1 17 7 21 13 4 7 10 11 14 10 10 -3 100 43 104 53 2
4 12 7 21 7 10 0 30 9 44 20 14 11 30 20 36 20 6 0 11 7 11 15 0 8 4 15 9 15
19 0 18 70 -1 90 -10 11 -16 20 -12 20 3 0 -6 21 -21 46 -15 25 -24 48 -21 51
3 3 -2 12 -10 20 -8 8 -12 19 -9 24 4 5 2 9 -4 9 -5 0 -12 14 -16 30 -4 17
-11 30 -16 30 -6 0 -7 5 -4 10 3 6 1 10 -5 10 -6 0 -8 5 -5 10 3 6 2 10 -4 10
-9 0 -27 56 -23 73 1 4 -5 7 -13 7 -8 0 -15 8 -15 18 0 21 -33 56 -43 45 -4
-3 -7 -2 -7 3 0 5 -13 9 -30 9 -16 1 -30 -2 -30 -6z"/>
<path d="M6800 8023 c0 -6 -9 -10 -20 -8 -11 2 -20 0 -20 -5 0 -5 -11 -12 -25
-16 -14 -3 -22 -10 -19 -15 3 -5 -2 -6 -10 -3 -9 3 -16 1 -16 -5 0 -6 -12 -11
-26 -11 -14 0 -23 -4 -20 -9 7 -11 -22 -23 -35 -15 -5 3 -9 0 -9 -5 0 -6 -7
-11 -15 -11 -8 0 -15 -5 -15 -11 0 -6 -7 -9 -15 -5 -9 3 -15 0 -15 -10 0 -8
-5 -12 -11 -9 -5 4 -19 -1 -31 -12 -11 -10 -23 -18 -27 -17 -3 1 -16 -5 -28
-13 -12 -8 -26 -12 -32 -9 -5 3 -11 -1 -15 -9 -3 -9 -12 -12 -22 -8 -12 4 -15
3 -10 -5 6 -11 -5 -17 -26 -13 -5 0 -8 -3 -8 -7 0 -4 -23 -16 -51 -27 -28 -11
-55 -28 -60 -37 -5 -10 -16 -15 -23 -12 -13 5 -59 -31 -62 -48 -1 -5 -3 -11
-4 -15 -8 -22 -4 -71 5 -70 5 1 9 -6 9 -15 -1 -10 2 -18 8 -18 5 0 7 -4 4 -9
-4 -5 -3 -11 1 -13 9 -3 45 -76 49 -97 1 -8 7 -17 12 -20 5 -3 12 -18 15 -33
4 -15 14 -33 22 -42 8 -8 15 -21 15 -28 0 -7 9 -28 20 -46 11 -18 19 -36 18
-40 -9 -26 68 -77 92 -62 7 5 22 7 32 5 12 -3 16 0 12 7 -5 7 0 9 14 6 12 -3
20 -2 19 2 -1 4 1 7 4 7 4 -1 16 6 26 16 11 9 23 14 26 10 4 -3 7 -1 7 6 0 7
5 9 10 6 6 -3 10 -1 10 5 0 6 5 8 10 5 6 -3 10 -1 10 5 0 6 4 9 9 6 5 -3 14 1
21 9 6 7 19 11 27 8 11 -4 14 -2 9 5 -4 7 -2 13 3 13 20 3 26 5 61 24 19 11
38 18 43 17 4 -1 7 3 7 9 0 5 5 7 10 4 6 -3 10 -1 10 5 0 6 5 8 10 5 6 -3 10
-1 10 4 0 6 3 10 8 9 4 -1 27 9 52 22 25 13 48 23 53 22 4 -1 7 3 7 10 0 6 3
8 6 5 4 -4 19 2 34 13 15 11 30 17 33 13 4 -3 9 1 13 10 3 9 12 13 21 10 11
-4 14 -2 9 5 -4 7 -1 12 6 12 18 0 50 54 46 77 -2 10 -17 46 -35 79 -17 34
-29 65 -26 68 4 3 1 6 -6 6 -7 0 -9 5 -6 10 3 6 1 10 -4 10 -6 0 -10 3 -9 8 4
14 -13 52 -23 52 -6 0 -7 5 -4 10 3 6 1 10 -6 10 -7 0 -10 3 -6 6 3 4 0 19 -8
34 -8 15 -12 30 -10 34 3 3 2 4 -2 1 -3 -3 -19 23 -34 56 -20 47 -34 65 -58
75 -24 10 -31 10 -31 1 0 -7 -4 -6 -10 3 -6 9 -10 10 -10 3z"/>
<path d="M3310 7911 c0 -5 -8 -8 -17 -7 -10 2 -23 -4 -30 -13 -6 -9 -15 -16
-20 -16 -20 -2 -53 -17 -53 -26 0 -5 -3 -8 -7 -7 -15 4 -53 -14 -53 -24 0 -6
-3 -8 -7 -5 -3 4 -25 -4 -48 -18 -23 -13 -45 -21 -49 -18 -3 3 -6 1 -6 -6 0
-7 -5 -9 -10 -6 -6 3 -13 -1 -16 -9 -3 -9 -10 -14 -14 -11 -5 3 -16 -2 -24
-11 -9 -8 -16 -12 -16 -8 0 3 -6 1 -13 -5 -8 -6 -17 -8 -20 -4 -4 3 -7 1 -7
-6 0 -7 -4 -10 -9 -6 -6 3 -14 -2 -19 -11 -5 -9 -13 -16 -18 -16 -5 0 -20 -5
-34 -11 -14 -6 -28 -10 -32 -9 -5 1 -8 -2 -8 -8 0 -5 -7 -10 -15 -10 -8 0 -15
-4 -15 -10 0 -6 -3 -9 -7 -8 -16 3 -49 -16 -70 -41 -17 -19 -22 -36 -20 -67 1
-23 5 -40 8 -38 6 3 22 -25 20 -34 -1 -1 8 -18 19 -39 10 -20 17 -40 14 -45
-3 -4 -1 -8 4 -8 5 0 19 -24 33 -52 13 -29 26 -55 29 -58 3 -3 7 -14 8 -25 2
-11 11 -28 19 -37 8 -9 12 -21 9 -26 -3 -6 1 -13 9 -16 8 -3 14 -9 13 -13 -1
-4 7 -22 18 -38 17 -27 24 -30 64 -29 24 1 46 7 48 13 2 6 7 9 12 6 5 -3 16 3
26 12 10 10 20 18 23 17 17 -3 40 10 34 19 -3 6 -1 7 5 3 6 -4 22 0 35 9 13 8
27 12 30 8 4 -3 7 -1 7 5 0 10 38 28 53 24 4 -1 7 2 7 8 0 6 7 10 15 10 8 0
15 5 15 11 0 5 4 8 9 4 5 -3 13 0 16 6 4 5 13 8 21 5 8 -3 14 1 14 9 0 8 3 14
8 14 12 -3 72 25 72 33 0 4 9 8 20 8 11 0 20 5 20 10 0 6 3 9 8 8 4 -1 17 3
28 10 12 6 24 8 28 5 3 -3 6 1 6 10 0 11 7 15 20 12 12 -2 23 2 27 10 3 8 9
12 14 9 5 -3 9 0 9 7 0 7 3 10 6 6 8 -7 53 36 47 46 -2 4 0 7 6 7 5 0 8 12 5
28 -6 33 -53 134 -68 144 -6 4 -7 8 -2 8 5 0 2 8 -5 17 -12 14 -12 16 0 8 9
-5 5 5 -7 22 -12 17 -22 36 -22 42 0 6 -4 11 -10 11 -5 0 -7 6 -4 13 3 8 -2
20 -10 27 -9 7 -13 16 -10 21 3 5 0 9 -6 9 -6 0 -8 5 -5 10 3 6 1 10 -4 10 -6
0 -11 9 -11 20 0 11 -5 20 -11 20 -6 0 -9 7 -5 15 3 8 -2 18 -10 23 -9 5 -14
11 -12 14 1 2 -4 11 -12 19 -17 16 -90 24 -90 10z"/>
<path d="M8000 7503 c-13 -9 -20 -11 -16 -5 9 16 1 15 -16 0 -7 -7 -36 -24
-63 -37 -99 -47 -115 -56 -115 -63 0 -4 -7 -5 -15 -2 -8 4 -15 1 -15 -5 0 -6
-9 -11 -20 -11 -11 0 -20 -5 -20 -11 0 -5 -4 -7 -10 -4 -5 3 -10 1 -10 -5 0
-6 -4 -8 -10 -5 -5 3 -10 1 -10 -4 0 -6 -9 -11 -20 -11 -11 0 -20 -4 -20 -10
0 -5 -3 -9 -7 -8 -10 2 -106 -44 -114 -55 -3 -5 -9 -8 -13 -8 -23 3 -36 0 -31
-9 3 -5 -3 -10 -15 -10 -11 0 -23 -7 -26 -15 -4 -8 -10 -12 -15 -10 -5 3 -20
-2 -34 -11 -14 -9 -25 -13 -25 -9 0 3 -7 -1 -16 -9 -8 -9 -21 -16 -28 -16 -8
0 -19 -7 -26 -15 -7 -8 -15 -13 -19 -10 -4 2 -23 -6 -42 -18 -19 -11 -36 -21
-39 -22 -26 -5 -49 -18 -45 -26 3 -5 -1 -6 -9 -3 -9 3 -23 -1 -32 -10 -8 -9
-20 -14 -25 -11 -5 4 -9 1 -9 -4 0 -6 -7 -11 -15 -11 -8 0 -23 -8 -32 -18 -20
-20 -31 -58 -14 -48 6 4 4 -6 -4 -20 -8 -15 -12 -31 -9 -36 3 -4 0 -8 -6 -8
-7 0 -10 -7 -6 -15 3 -9 0 -15 -10 -15 -8 0 -13 -4 -10 -9 13 -20 -131 -131
-170 -131 -8 0 -14 -5 -14 -12 0 -6 -3 -8 -7 -5 -3 4 -13 1 -21 -6 -12 -9 -14
-9 -9 0 6 9 -3 8 -27 -2 -20 -8 -47 -15 -61 -15 -14 0 -25 -4 -25 -10 0 -5 -3
-9 -7 -9 -18 3 -32 -2 -45 -14 -7 -6 -30 -21 -50 -31 -20 -11 -35 -24 -32 -28
3 -4 -4 -8 -16 -8 -12 0 -18 -4 -15 -10 3 -5 2 -10 -2 -10 -5 0 -37 -26 -71
-58 -34 -32 -62 -56 -62 -53 -1 3 -7 -5 -14 -18 -15 -27 -11 -55 7 -44 5 3 7
1 4 -5 -9 -13 2 -44 14 -37 4 3 6 -4 4 -15 -2 -11 1 -20 7 -20 6 0 8 -9 5 -20
-3 -11 -1 -18 4 -14 5 3 9 -2 9 -10 0 -9 5 -16 11 -16 5 0 8 -4 4 -9 -3 -5 2
-17 11 -25 8 -9 12 -16 9 -16 -4 0 2 -15 12 -33 11 -18 19 -40 17 -50 -1 -9 2
-15 6 -12 8 5 26 -33 22 -47 -1 -5 3 -8 9 -8 5 0 7 -4 4 -10 -3 -5 -2 -10 2
-10 5 0 17 -22 28 -50 11 -27 24 -50 29 -50 5 0 6 -3 3 -6 -3 -4 -1 -16 5 -28
7 -11 13 -23 13 -26 0 -3 9 -19 18 -37 9 -18 17 -39 17 -47 0 -8 4 -16 9 -18
5 -1 11 -10 13 -18 2 -8 7 -18 11 -21 4 -3 9 -16 10 -27 1 -12 5 -22 9 -22 4
0 8 -7 8 -15 0 -8 5 -15 11 -15 5 0 7 -4 4 -10 -3 -5 -1 -10 5 -10 6 0 8 -5 4
-11 -3 -6 -3 -14 2 -18 14 -9 34 -49 34 -65 0 -8 8 -20 18 -25 11 -7 12 -11 4
-11 -10 0 -10 -4 2 -16 9 -8 16 -22 16 -30 0 -9 7 -22 15 -31 8 -8 13 -19 10
-24 -4 -5 -1 -9 5 -9 6 0 9 -4 5 -9 -3 -5 0 -15 7 -23 7 -7 14 -20 16 -28 2
-8 7 -16 12 -18 4 -2 6 -11 3 -22 -3 -10 -11 -16 -18 -14 -7 3 -15 -2 -18 -10
-4 -9 -13 -13 -22 -10 -8 3 -15 2 -15 -3 0 -10 -79 -50 -92 -46 -4 2 -10 -7
-13 -19 -5 -13 -10 -17 -14 -9 -5 8 -14 6 -30 -8 -12 -11 -29 -17 -37 -14 -8
3 -14 2 -12 -3 2 -5 0 -10 -5 -11 -4 -1 -27 -14 -51 -27 -24 -14 -47 -22 -50
-19 -3 4 -6 1 -6 -5 0 -7 -7 -12 -15 -12 -8 0 -15 -5 -15 -12 0 -6 -3 -8 -6
-5 -4 4 -19 -2 -34 -13 -15 -11 -30 -17 -34 -13 -3 3 -6 2 -6 -4 0 -10 -49
-33 -67 -32 -3 1 -9 -3 -12 -8 -10 -15 -168 -93 -175 -86 -3 4 -6 1 -6 -4 0
-6 -35 -28 -77 -49 -43 -21 -79 -42 -81 -46 -2 -4 -12 -8 -22 -8 -9 0 -23 -6
-29 -14 -7 -8 -23 -17 -36 -20 -14 -4 -25 -11 -25 -16 0 -5 -6 -7 -14 -4 -7 3
-16 -2 -20 -11 -3 -9 -10 -14 -15 -11 -5 3 -25 -5 -45 -19 -20 -14 -43 -25
-51 -25 -8 0 -15 -5 -15 -12 0 -6 -3 -9 -6 -5 -3 3 -24 -5 -45 -19 -22 -14
-44 -22 -49 -19 -6 4 -10 2 -10 -3 0 -5 -29 -24 -65 -42 -36 -18 -65 -36 -65
-40 0 -5 -9 -6 -20 -3 -14 4 -20 1 -18 -8 2 -9 -4 -13 -14 -11 -10 2 -18 -2
-18 -8 0 -5 -9 -10 -19 -10 -11 0 -21 -3 -23 -7 -4 -11 -120 -69 -130 -66 -4
2 -13 -6 -20 -16 -6 -10 -18 -17 -25 -14 -7 3 -13 0 -13 -7 0 -6 -4 -8 -10 -5
-5 3 -10 1 -10 -5 0 -6 -4 -8 -10 -5 -6 3 -10 3 -10 -2 0 -4 -20 -16 -45 -26
-25 -11 -45 -23 -45 -28 0 -5 -3 -8 -7 -7 -11 2 -87 -35 -91 -45 -2 -4 -8 -5
-13 -1 -5 3 -12 -2 -15 -10 -3 -9 -10 -13 -15 -10 -5 3 -9 -1 -9 -8 0 -9 -3
-9 -10 2 -8 13 -10 12 -10 -4 0 -11 -3 -16 -6 -13 -7 7 -84 -31 -95 -46 -3 -5
-10 -8 -15 -7 -5 0 -11 -9 -12 -21 -2 -13 0 -19 7 -15 6 4 11 0 11 -8 0 -9 7
-16 15 -16 9 0 18 -7 21 -15 6 -14 82 -56 109 -60 6 -1 13 -3 18 -5 4 -1 12
-4 17 -5 6 -1 11 -3 13 -5 1 -1 11 -3 21 -5 18 -4 36 -22 36 -38 0 -5 -4 -5
-10 -2 -5 3 -10 0 -10 -8 0 -7 -6 -14 -12 -14 -7 -1 -28 -6 -45 -11 -21 -7
-33 -7 -33 -1 0 6 -8 5 -20 -1 -12 -6 -20 -7 -20 -1 0 11 -19 9 -39 -3 -10 -6
-12 -5 -7 2 5 8 -1 12 -16 11 -13 0 -34 2 -48 5 -14 2 -42 7 -63 10 -41 6 -74
30 -57 41 8 5 8 11 1 19 -6 7 -9 15 -7 17 9 11 16 60 7 55 -5 -3 -11 -1 -13 4
-2 6 -12 3 -23 -7 -11 -10 -24 -18 -30 -18 -19 1 -36 17 -31 30 2 7 -2 16 -10
19 -8 3 -13 9 -12 13 1 4 -12 37 -29 73 -18 35 -29 68 -26 72 2 5 -1 7 -8 6
-7 -2 -14 2 -14 7 -3 16 -24 66 -55 126 -16 31 -26 59 -23 63 4 3 1 6 -5 6 -6
0 -14 9 -17 20 -3 11 -12 20 -20 20 -7 0 -20 6 -27 13 -19 17 -38 19 -38 4 0
-9 -2 -9 -9 1 -12 20 -18 19 -36 -3 -9 -11 -13 -14 -9 -6 5 10 3 13 -8 8 -9
-3 -36 -11 -59 -18 -24 -7 -53 -20 -63 -28 -16 -13 -18 -14 -11 -1 4 8 -3 5
-16 -6 -13 -12 -34 -25 -46 -29 -13 -3 -23 -11 -23 -16 0 -5 -6 -9 -12 -9 -14
0 -65 -69 -61 -82 2 -4 -2 -8 -8 -8 -6 0 -8 -7 -5 -16 4 -10 2 -13 -6 -8 -7 5
-9 2 -6 -8 4 -8 2 -21 -2 -29 -6 -9 -3 -21 8 -33 13 -14 13 -17 2 -11 -13 8
-13 7 -1 -8 7 -9 10 -17 5 -17 -24 0 63 -68 96 -74 3 -1 11 -5 18 -9 7 -5 12
-4 12 2 0 6 8 7 17 4 20 -8 67 -7 103 2 14 3 32 8 40 10 8 2 17 4 20 5 3 1 13
1 24 0 10 -1 16 2 13 7 -3 4 7 9 21 9 15 1 33 3 40 5 8 2 19 -4 25 -13 8 -13
6 -25 -9 -55 -10 -21 -22 -40 -27 -41 -4 -2 -5 -8 -1 -13 3 -5 0 -9 -5 -9 -6
0 -11 -9 -11 -19 0 -11 -5 -21 -12 -23 -7 -3 -9 -14 -5 -30 5 -19 12 -25 26
-21 10 3 22 0 25 -6 4 -5 13 -8 21 -4 9 3 21 0 29 -6 7 -6 16 -9 19 -6 4 3 5
2 2 -2 -3 -3 4 -12 15 -20 11 -8 20 -21 20 -29 0 -8 4 -14 8 -14 4 0 14 -16
21 -35 6 -19 34 -58 62 -87 27 -28 49 -53 49 -54 0 -7 50 -52 50 -46 1 4 10
-4 20 -17 11 -13 20 -21 20 -17 0 3 9 -2 20 -11 10 -9 27 -18 37 -20 24 -3 84
16 106 35 9 8 20 12 24 9 3 -4 12 1 20 11 9 10 11 11 7 2 -7 -12 -5 -13 8 -3
8 7 18 10 21 6 4 -3 7 0 7 7 0 7 3 10 7 7 3 -4 12 -2 20 4 9 8 13 8 13 0 0 -7
8 -8 24 -1 13 5 26 7 29 4 2 -3 20 -7 38 -9 34 -4 55 -8 114 -22 17 -4 33 -6
38 -5 4 1 7 -3 7 -8 0 -6 8 -10 18 -10 10 0 22 -3 26 -7 4 -4 19 -9 34 -11 15
-2 29 -7 30 -13 2 -5 7 -7 12 -4 5 3 15 -2 24 -10 8 -9 17 -15 18 -14 3 2 27
-4 61 -16 4 -1 12 -3 18 -4 5 0 7 -5 4 -11 -3 -6 1 -7 10 -4 8 4 23 0 32 -7 9
-8 18 -13 19 -12 7 5 64 -10 64 -16 0 -4 12 -8 28 -9 15 -1 29 -7 30 -12 2 -6
8 -8 13 -4 5 3 9 0 9 -6 0 -6 5 -8 10 -5 6 3 10 3 10 -2 0 -4 18 -19 40 -33
22 -13 40 -30 40 -37 0 -7 4 -13 9 -13 13 0 50 -65 56 -97 2 -15 9 -30 16 -33
8 -6 8 -9 0 -15 -9 -5 -9 -10 -1 -21 7 -7 10 -19 8 -26 -5 -15 52 -69 64 -62
4 3 8 1 8 -4 0 -5 6 -9 13 -9 22 -1 75 -13 100 -22 14 -6 28 -7 31 -4 3 4 6 2
6 -3 0 -5 11 -11 24 -12 12 -1 49 -15 80 -31 31 -17 54 -25 51 -18 -4 7 0 4 8
-5 8 -10 16 -15 19 -13 3 3 21 -10 40 -29 20 -19 39 -32 44 -28 4 4 4 2 0 -5
-3 -6 2 -16 11 -22 10 -6 14 -11 9 -11 -5 0 -3 -6 3 -14 6 -8 13 -27 15 -42 3
-16 8 -38 12 -48 5 -14 4 -17 -5 -11 -10 6 -11 3 -2 -13 6 -12 7 -23 2 -26 -5
-4 -8 -17 -7 -31 2 -13 0 -22 -4 -20 -4 3 -11 -10 -14 -29 -4 -19 -13 -40 -22
-47 -12 -10 -12 -14 -2 -20 9 -6 9 -9 1 -9 -10 0 -29 -55 -25 -72 1 -5 -1 -8
-6 -8 -4 0 -7 -16 -6 -35 1 -19 -2 -38 -7 -41 -5 -3 -4 -14 2 -25 8 -16 7 -25
-7 -40 -16 -18 -16 -19 -1 -13 13 5 16 2 11 -10 -3 -9 -11 -16 -18 -16 -6 0
-4 -5 4 -10 13 -9 13 -10 0 -10 -13 0 -13 -1 0 -10 8 -5 10 -10 4 -10 -6 0
-10 -11 -9 -25 2 -14 0 -27 -5 -30 -4 -2 -6 -16 -5 -30 2 -14 0 -25 -5 -25 -4
0 -6 -11 -5 -25 2 -14 -1 -23 -6 -19 -5 3 -9 -6 -9 -20 0 -13 -6 -31 -12 -38
-7 -7 -14 -20 -16 -28 -2 -8 -12 -23 -23 -32 -11 -9 -20 -21 -20 -25 0 -4 -10
-13 -22 -20 -12 -7 -18 -12 -14 -13 12 0 -49 -50 -61 -50 -5 0 -13 -7 -16 -16
-3 -8 -10 -12 -16 -9 -6 3 -13 -1 -16 -9 -3 -9 -10 -14 -14 -11 -4 3 -10 -2
-14 -10 -3 -8 -10 -15 -16 -15 -5 0 -19 -9 -30 -20 -12 -12 -25 -18 -30 -15
-6 4 -10 -2 -10 -11 0 -10 -3 -15 -6 -12 -6 6 -54 -35 -57 -49 -1 -4 -13 -20
-28 -34 -15 -14 -30 -36 -34 -48 -3 -11 -11 -21 -16 -21 -5 0 -9 -7 -9 -15 0
-8 -4 -15 -9 -15 -5 0 -14 -13 -20 -30 -5 -16 -14 -30 -18 -30 -4 0 -14 -12
-21 -28 -6 -15 -25 -43 -42 -62 -16 -19 -34 -40 -40 -47 -5 -7 -10 -17 -10
-23 0 -5 -7 -10 -16 -10 -8 0 -12 -4 -9 -10 3 -5 -1 -10 -10 -10 -9 0 -13 -5
-10 -10 3 -6 -1 -10 -10 -10 -10 0 -13 -5 -9 -12 4 -6 3 -8 -3 -5 -6 4 -21 -2
-33 -13 -12 -11 -31 -22 -41 -25 -11 -4 -19 -11 -19 -16 0 -5 -7 -9 -17 -9 -9
0 -14 -3 -10 -6 3 -4 1 -12 -6 -19 -21 -22 -40 -53 -38 -60 2 -4 -2 -11 -9
-15 -6 -4 -12 -16 -13 -28 0 -12 -7 -24 -13 -26 -7 -3 -11 -16 -10 -30 2 -14
0 -26 -5 -26 -14 0 -47 -207 -40 -255 1 -5 2 -26 4 -45 1 -19 8 -41 15 -48 7
-8 10 -18 7 -23 -4 -5 -1 -9 4 -9 6 0 11 -7 11 -16 0 -9 7 -22 17 -29 18 -13
9 -40 -10 -28 -7 4 -16 8 -22 8 -5 1 -9 7 -7 13 2 10 -3 10 -17 3 -13 -8 -20
-8 -23 0 -2 5 -10 11 -18 12 -8 2 -21 6 -28 11 -7 4 -16 6 -19 2 -8 -7 -29 16
-37 42 -4 12 -12 22 -17 22 -6 0 -7 5 -4 10 3 6 1 10 -4 10 -6 0 -11 5 -11 12
0 17 -33 88 -41 88 -4 0 -5 8 -2 19 3 10 0 22 -6 25 -6 4 -11 18 -11 32 0 13
-4 24 -8 24 -4 0 -9 8 -10 18 -3 32 -7 47 -16 61 -7 10 -5 12 5 7 9 -5 9 -3
-1 6 -9 7 -15 25 -14 41 2 15 -1 27 -6 27 -5 0 -7 9 -5 20 2 11 -2 20 -8 20
-7 0 -6 4 3 10 8 5 10 10 4 10 -6 0 -10 16 -9 35 1 19 -2 35 -8 35 -5 0 -4 6
2 14 7 8 8 17 3 20 -11 6 -22 76 -12 76 7 0 4 129 -3 137 -7 7 4 36 17 45 8 6
8 8 0 8 -14 0 -14 33 0 42 8 6 8 8 -1 8 -7 0 -12 24 -13 68 -3 150 -4 167 -14
174 -6 4 -4 13 5 24 12 15 12 16 0 9 -11 -6 -13 -3 -9 13 4 12 3 22 0 22 -4 0
-7 20 -6 45 0 26 -4 45 -10 45 -6 0 -4 5 4 10 12 8 12 10 1 10 -8 0 -11 7 -8
20 3 11 1 20 -3 20 -5 0 -7 8 -5 18 1 9 0 21 -3 27 -3 5 -7 25 -9 44 -2 20 -9
39 -16 43 -7 4 -9 8 -4 8 4 0 1 15 -7 34 -8 19 -12 37 -8 40 3 3 -1 6 -9 6
-11 0 -11 2 1 10 13 8 12 10 -2 10 -10 0 -18 5 -18 10 0 11 -10 24 -42 61 -10
10 -18 24 -18 29 0 6 -5 10 -11 10 -5 0 -7 5 -4 10 3 6 -1 13 -9 16 -9 3 -16
12 -16 20 0 8 -4 14 -10 14 -5 0 -10 6 -10 13 0 7 -9 23 -20 35 -11 12 -20 23
-20 26 0 9 -65 111 -73 114 -4 2 -5 8 -1 13 3 5 -2 9 -10 9 -9 0 -15 3 -14 8
2 10 -36 72 -45 72 -5 0 -5 5 -2 10 3 6 1 10 -5 10 -6 0 -8 5 -5 10 3 6 2 10
-3 10 -8 0 -16 25 -26 80 -1 3 -5 11 -10 18 -4 8 -2 20 6 29 11 14 11 16 -1 8
-11 -6 -13 -4 -8 7 3 9 1 20 -5 26 -6 6 -6 12 1 16 5 4 8 13 4 21 -3 9 1 23 8
32 12 14 12 16 0 8 -11 -6 -13 -4 -7 11 5 10 9 33 11 49 2 17 4 30 5 30 1 0 3
7 5 15 21 88 71 220 80 212 5 -4 6 0 2 9 -3 9 0 22 6 28 8 8 7 11 -4 11 -12 0
-12 2 0 9 14 9 20 25 24 66 2 11 6 25 10 32 4 6 0 19 -9 27 -19 19 -28 21 -18
4 6 -9 3 -9 -9 0 -9 8 -21 11 -26 8 -5 -4 -13 -1 -16 5 -4 5 -13 8 -20 5 -7
-2 -16 2 -19 10 -3 9 -10 12 -16 9 -5 -3 -10 -1 -10 4 0 6 -7 11 -15 11 -8 0
-15 4 -15 10 0 5 -4 9 -9 7 -5 -1 -23 13 -40 30 -17 18 -31 29 -31 25 0 -4
-15 8 -33 26 -67 67 -126 122 -132 122 -3 0 -21 16 -39 35 -19 19 -38 35 -42
35 -4 0 -12 7 -18 15 -6 8 -22 17 -36 20 -14 3 -26 9 -28 15 -2 6 -8 8 -13 4
-5 -3 -9 0 -9 7 0 7 -3 10 -6 6 -3 -3 -26 3 -50 13 -24 11 -44 17 -44 13 0 -3
-6 0 -14 6 -8 7 -23 14 -35 16 -11 2 -36 11 -55 20 -19 9 -42 18 -51 19 -9 1
-20 7 -23 13 -4 5 -15 9 -25 7 -9 -1 -15 1 -13 4 2 4 -16 21 -40 37 -24 17
-44 36 -44 43 0 7 -4 10 -10 7 -6 -3 -10 1 -10 9 0 9 -4 16 -10 16 -5 0 -10 6
-10 14 0 8 -7 17 -16 20 -9 3 -14 13 -10 21 3 8 0 18 -7 22 -14 9 -42 64 -38
77 1 4 -5 19 -14 32 -8 13 -13 24 -10 24 3 0 0 10 -7 23 -6 12 -12 30 -13 40
-1 11 -8 23 -16 28 -12 7 -12 9 1 9 11 0 12 2 3 8 -7 4 -14 17 -16 27 -4 26
-37 88 -50 97 -17 11 -29 -2 -16 -18 6 -7 9 -21 5 -29 -3 -8 -2 -15 2 -15 5 0
8 -15 7 -32 -1 -18 1 -37 4 -43 15 -28 17 -137 4 -142 -7 -3 -11 -9 -8 -13 3
-5 -4 -6 -16 -3 -11 3 -23 13 -27 22 -3 9 -12 20 -19 24 -7 5 -11 12 -8 18 4
5 1 9 -6 9 -7 0 -10 3 -6 6 3 4 -1 13 -9 21 -8 8 -12 19 -9 24 4 5 1 9 -6 9
-7 0 -9 3 -6 7 4 3 2 12 -4 20 -6 7 -8 13 -4 13 4 0 2 7 -5 15 -7 8 -10 15 -7
15 3 0 0 12 -8 27 -8 15 -12 30 -9 35 3 4 0 8 -5 8 -6 0 -11 8 -11 19 0 10 -7
35 -16 56 -8 20 -13 39 -10 42 3 3 -1 12 -9 19 -8 8 -12 21 -9 28 3 8 1 17 -5
21 -6 3 -11 16 -11 29 0 12 -3 26 -7 30 -11 11 -32 79 -27 88 3 4 0 8 -6 8 -6
0 -8 4 -5 10 3 5 2 18 -4 27 -6 11 -6 24 1 36 7 14 7 18 -2 12 -7 -4 -11 -1
-9 6 4 35 0 39 -28 26 -16 -6 -31 -15 -34 -20 -3 -5 -9 -8 -13 -8 -20 3 -26 0
-21 -9 4 -6 3 -10 -2 -9 -20 4 -44 -2 -39 -9 2 -4 -5 -9 -16 -9 -12 -1 -24 -7
-28 -13 -4 -7 -9 -11 -11 -10 -2 1 -15 -3 -29 -8 -14 -5 -29 -10 -33 -10 -5 0
-15 -9 -23 -19 -7 -10 -14 -14 -14 -8 0 5 -6 1 -14 -10 -7 -11 -13 -31 -12
-45 1 -14 -2 -28 -7 -31 -4 -3 -9 -22 -10 -42 -1 -21 -5 -37 -8 -37 -4 0 -7
-10 -8 -22 -3 -51 -7 -77 -13 -83 -4 -4 -4 -13 -1 -21 3 -8 -1 -14 -8 -14 -10
0 -10 -3 -1 -12 6 -6 8 -17 3 -27 -5 -9 -8 -30 -7 -48 0 -17 -2 -29 -6 -27 -4
3 -7 -8 -7 -23 0 -62 -6 -143 -11 -143 -3 0 -5 -17 -4 -37 0 -21 -1 -42 -5
-48 -9 -16 -9 -439 1 -457 5 -10 5 -18 1 -18 -4 0 -8 -16 -8 -35 0 -19 3 -35
7 -35 7 0 2 -39 -7 -48 -2 -3 0 -11 6 -19 6 -7 8 -13 4 -13 -4 0 -2 -7 5 -15
9 -11 9 -15 1 -15 -8 0 -9 -5 -2 -18 5 -10 8 -27 7 -38 -2 -10 2 -22 8 -26 8
-6 7 -8 -1 -8 -9 0 -10 -7 -3 -26 7 -18 7 -31 0 -39 -8 -10 -8 -15 1 -21 8 -5
9 -3 4 6 -5 8 -4 11 1 7 6 -3 10 -26 9 -51 0 -25 3 -46 7 -46 4 0 5 -9 3 -20
-2 -11 0 -22 5 -25 6 -3 8 -22 5 -41 -2 -20 0 -34 7 -34 6 0 8 -9 5 -20 -3
-11 -1 -20 3 -20 5 0 7 -8 5 -17 -1 -10 3 -24 9 -32 9 -12 8 -13 -4 -6 -12 7
-13 6 -3 -6 7 -9 13 -30 15 -47 1 -18 5 -32 8 -32 5 0 11 -30 13 -72 1 -10 5
-18 9 -18 4 0 8 -9 8 -21 0 -11 4 -28 9 -37 5 -9 11 -30 12 -47 2 -16 7 -33
12 -36 4 -3 9 -19 10 -35 1 -16 8 -35 15 -42 7 -8 9 -18 6 -24 -4 -6 -2 -13 5
-17 6 -4 12 -19 13 -34 1 -15 6 -27 10 -27 4 0 7 -3 7 -7 -4 -26 2 -53 12 -48
6 4 9 1 8 -6 -2 -8 2 -24 9 -36 7 -13 10 -23 6 -23 -3 0 -1 -6 5 -13 6 -8 8
-17 4 -20 -3 -4 -1 -7 5 -7 7 0 12 -8 12 -18 0 -10 5 -23 12 -30 7 -7 8 -12 3
-12 -4 0 0 -9 10 -20 9 -10 15 -26 12 -35 -4 -9 -1 -15 9 -15 8 0 13 -4 10 -8
-3 -5 5 -29 18 -55 13 -25 21 -48 18 -51 -3 -4 0 -6 7 -6 7 0 9 -4 6 -10 -3
-6 -1 -10 5 -10 6 0 8 -4 5 -10 -3 -5 -1 -10 5 -10 6 0 8 -4 5 -10 -3 -5 -2
-10 3 -10 8 0 14 -13 22 -48 1 -4 8 -14 16 -23 8 -9 11 -19 7 -22 -3 -4 -1 -7
5 -7 7 0 19 -17 27 -37 9 -21 19 -40 23 -43 6 -4 32 -56 35 -70 1 -5 2 -6 43
-58 15 -18 24 -35 21 -38 -3 -4 5 -18 19 -33 13 -14 27 -34 30 -43 3 -10 10
-18 15 -18 5 0 9 -6 9 -12 0 -12 27 -49 67 -92 13 -14 14 -17 3 -12 -9 5 -8 2
3 -7 9 -8 17 -17 17 -20 0 -3 13 -20 30 -38 16 -18 26 -37 23 -42 -3 -6 -1 -7
5 -3 7 4 12 4 12 -1 0 -4 10 -20 23 -35 12 -14 30 -36 40 -47 9 -12 17 -26 17
-32 0 -5 5 -7 10 -4 6 3 10 2 10 -4 0 -5 18 -28 40 -51 22 -23 40 -46 40 -51
0 -5 7 -9 17 -9 9 0 14 -3 11 -6 -12 -11 273 -282 402 -384 18 -14 43 -35 56
-48 13 -13 24 -19 24 -15 1 4 9 -2 19 -14 10 -12 21 -19 25 -16 3 3 8 -1 12
-10 3 -9 12 -13 21 -10 11 4 14 2 9 -5 -4 -8 3 -16 19 -22 14 -5 23 -15 20
-20 -4 -6 -2 -9 3 -8 5 2 52 -25 104 -59 53 -35 100 -63 107 -63 6 0 11 -4 11
-8 0 -4 22 -19 50 -33 27 -13 50 -27 50 -31 0 -5 7 -8 16 -8 8 0 13 -3 11 -7
-3 -5 6 -9 20 -10 14 0 28 -5 32 -11 3 -5 47 -29 96 -53 50 -24 91 -47 93 -51
2 -4 9 -5 16 -2 8 3 16 -2 20 -11 3 -9 10 -14 15 -11 5 3 22 -1 37 -9 16 -8
35 -15 42 -15 6 0 12 -4 12 -8 0 -5 6 -9 13 -10 19 -1 39 -8 72 -22 17 -7 33
-13 38 -12 4 1 7 -2 7 -8 0 -5 7 -7 15 -4 8 4 15 1 15 -5 0 -6 7 -8 15 -5 8 4
15 1 15 -6 0 -6 5 -8 11 -5 5 4 20 -1 31 -12 14 -12 18 -13 13 -3 -7 12 -6 13
6 3 8 -7 30 -15 49 -18 18 -3 38 -9 44 -13 14 -8 35 -14 64 -16 12 0 22 -4 22
-8 0 -5 9 -8 20 -8 11 0 20 -4 20 -10 0 -6 9 -6 26 0 15 6 23 6 19 1 -3 -5 -1
-12 5 -16 5 -3 10 -1 10 5 0 7 5 8 13 3 26 -17 77 -31 70 -19 -4 6 5 3 20 -7
17 -11 27 -13 27 -6 0 8 5 7 17 -2 9 -8 18 -13 20 -11 1 1 15 2 29 2 17 0 23
-4 18 -12 -5 -9 -2 -9 9 1 9 7 17 9 17 4 0 -5 10 -10 23 -11 12 -1 41 -3 64
-5 24 -2 45 -6 49 -9 3 -4 17 -4 31 -2 13 3 22 1 20 -3 -3 -5 15 -8 39 -8 25
1 50 -2 56 -6 7 -4 20 -3 29 2 10 5 20 5 23 1 3 -5 30 -8 60 -8 30 1 52 -2 49
-7 -2 -4 1 -7 6 -7 6 0 11 5 11 10 0 6 5 10 11 10 5 0 7 -5 4 -10 -3 -6 -2
-10 4 -10 5 0 13 5 16 10 4 6 12 7 18 3 20 -12 37 -12 37 0 0 8 3 9 8 1 8 -12
214 -16 207 -4 -5 8 44 4 52 -4 3 -3 13 -1 23 4 10 5 20 6 24 3 10 -10 46 -11
40 -1 -3 5 11 7 30 5 20 -2 36 0 36 4 0 5 11 4 25 -1 14 -5 25 -6 25 -1 0 5
12 9 28 9 41 0 103 9 109 16 4 3 13 0 21 -7 13 -10 14 -9 7 2 -6 11 -2 13 19
9 14 -3 26 -2 26 2 0 3 21 6 46 6 26 -1 48 4 51 10 2 6 15 10 28 8 14 -1 27 2
31 7 3 5 14 4 26 -2 15 -8 19 -8 14 0 -4 6 -1 11 6 12 40 2 74 12 80 22 5 9 8
8 8 -3 0 -13 1 -13 10 0 5 8 10 11 10 5 0 -5 5 -3 10 5 8 12 10 12 10 1 0 -11
3 -11 15 -1 8 6 19 9 25 5 5 -3 10 -1 10 5 0 6 4 9 9 5 5 -3 12 -1 16 4 3 6
12 8 20 4 8 -3 15 -1 15 5 0 6 8 9 18 7 9 -1 26 5 36 14 11 9 16 10 12 4 -4
-7 -2 -13 3 -13 6 0 11 4 11 8 0 4 10 8 22 9 11 1 25 8 29 15 5 7 9 9 9 4 0
-6 5 -5 11 1 6 6 18 9 25 6 8 -3 14 -1 14 5 0 6 11 9 25 8 13 -2 23 1 22 6 -1
6 11 12 28 14 16 2 31 8 33 13 2 5 10 7 18 4 8 -3 14 0 14 6 0 6 9 11 19 11
11 0 23 5 26 10 4 6 11 8 16 5 5 -4 9 -2 9 3 0 5 6 9 13 9 7 0 52 18 101 41
48 23 93 39 99 35 7 -3 9 -3 5 2 -9 9 45 45 67 45 8 0 15 5 15 11 0 5 5 7 10
4 6 -3 10 -1 10 5 0 6 5 8 10 5 6 -3 10 -1 10 4 0 6 8 11 18 11 10 0 28 9 40
20 12 12 22 18 22 14 0 -4 8 0 18 8 33 29 109 68 117 60 4 -4 6 -2 3 3 -3 6 1
17 10 25 9 8 17 14 17 12 0 -9 55 19 55 28 0 5 7 10 15 10 8 0 15 5 15 12 0 6
3 9 6 6 3 -3 17 5 31 18 14 13 32 24 40 24 8 0 11 5 8 10 -3 6 1 10 9 10 9 0
16 5 16 10 0 6 6 10 14 10 8 0 16 7 20 15 3 8 9 14 13 13 9 -3 44 24 86 67 16
17 26 23 23 15 -4 -8 1 -5 12 8 11 12 23 22 26 22 4 0 20 13 36 30 16 16 34
30 40 30 6 0 8 4 5 10 -3 5 -2 10 4 10 6 0 39 27 73 60 35 33 67 60 71 60 5 0
5 5 2 10 -3 6 -2 10 3 10 14 0 52 36 45 44 -3 3 2 6 12 6 10 0 16 2 13 6 -3 3
25 37 63 75 38 39 69 72 69 75 0 2 14 19 31 37 17 17 43 48 58 67 14 19 33 40
41 47 8 7 11 13 6 13 -5 0 1 8 12 19 12 10 22 22 22 25 0 4 6 13 13 20 13 14
25 30 89 121 23 33 46 62 50 63 5 2 6 7 3 12 -2 4 4 15 15 25 11 10 20 26 20
35 0 10 7 20 15 24 8 3 15 12 15 21 0 8 5 15 11 15 5 0 7 5 4 10 -3 6 -2 10 2
10 5 0 17 18 27 40 10 22 22 38 27 35 5 -4 6 0 3 8 -3 8 3 22 13 32 9 10 18
23 19 30 1 6 14 31 28 53 14 23 23 42 19 42 -5 0 0 5 10 11 9 6 15 14 12 20
-4 5 4 23 16 41 13 17 16 28 8 23 -9 -5 -8 -1 4 12 9 11 17 25 17 31 0 7 4 12
10 12 5 0 7 7 4 15 -4 8 -1 15 5 15 6 0 11 9 11 19 0 11 7 26 15 35 9 8 16 18
16 21 -1 23 13 64 20 59 5 -3 9 -2 8 3 -5 27 2 53 12 47 8 -5 10 1 7 19 -3 15
-1 28 5 30 6 2 12 14 14 27 2 13 8 27 14 31 6 3 10 8 8 10 -1 2 1 15 5 29 5
14 9 32 10 41 0 9 6 22 12 30 6 8 10 22 9 32 -2 9 2 17 8 17 5 0 7 3 4 7 -4 3
-2 12 5 20 6 7 8 16 5 19 -3 3 1 21 9 39 7 19 11 42 7 51 -4 12 -3 15 5 10 11
-7 17 18 13 52 -1 6 2 12 7 12 5 0 9 6 9 13 0 6 4 26 8 42 4 17 7 40 8 53 1
12 4 22 7 22 5 0 10 27 13 68 0 6 3 12 6 12 4 0 6 16 5 35 -1 19 2 35 6 35 4
0 6 14 5 30 -1 17 1 30 5 30 4 0 8 12 7 28 0 15 4 36 8 46 7 15 5 18 -6 12 -8
-4 -6 -1 4 7 11 9 14 18 8 21 -6 4 -7 16 -3 29 5 12 8 34 7 50 0 15 3 27 8 27
5 0 6 7 3 16 -3 8 -1 24 4 34 6 11 6 21 1 24 -5 3 -6 21 -2 38 4 18 6 51 5 73
-1 22 1 44 4 49 8 14 8 65 0 59 -5 -2 -4 7 1 20 6 14 7 28 3 31 -9 10 -10 46
0 40 4 -3 8 -1 8 5 0 5 -4 13 -10 16 -5 3 -10 12 -10 18 0 7 4 6 10 -3 14 -22
13 5 -1 32 -8 15 -8 19 0 14 6 -4 11 -3 11 3 0 5 -5 13 -10 16 -6 4 -8 11 -4
16 9 15 10 98 2 92 -11 -6 -10 5 3 29 6 11 7 18 1 14 -6 -3 -9 17 -8 52 1 31
-2 63 -7 70 -6 8 -5 12 2 12 7 0 9 5 5 11 -4 6 -8 28 -9 48 -3 51 -4 51 -18
45 -7 -2 -13 -15 -13 -29 0 -13 3 -22 7 -19 4 2 10 0 13 -5 4 -5 1 -13 -5 -17
-8 -4 -7 -9 2 -15 10 -6 10 -9 2 -9 -7 0 -10 -7 -7 -15 4 -8 3 -15 0 -15 -15
0 -86 36 -86 43 0 4 -4 5 -10 2 -5 -3 -10 -2 -10 3 0 8 -23 19 -46 21 -2 0
-12 8 -21 17 -9 9 -26 14 -39 11 -13 -2 -21 0 -18 5 3 5 -7 7 -23 4 -15 -2
-31 -5 -34 -5 -4 -1 -6 -9 -5 -18 1 -21 27 -44 40 -36 5 4 7 2 4 -3 -7 -11 17
-35 26 -27 3 4 6 1 6 -6 0 -7 4 -10 10 -6 5 3 17 -6 26 -20 9 -13 20 -22 25
-19 5 3 9 -2 9 -10 0 -9 4 -16 8 -16 7 0 28 -48 40 -90 9 -31 8 -106 -1 -117
-5 -7 -7 -13 -3 -13 7 0 -45 -53 -88 -90 -16 -14 -25 -18 -21 -10 5 8 -3 4
-18 -10 -14 -14 -29 -24 -32 -22 -4 2 -15 -6 -25 -18 -13 -15 -19 -17 -23 -8
-4 11 -6 10 -6 0 -1 -7 -5 -10 -11 -7 -5 3 -10 2 -10 -3 0 -14 -63 -33 -108
-32 -13 0 -21 -4 -18 -9 4 -5 -3 -7 -14 -4 -11 3 -20 9 -20 13 0 5 -9 6 -19 3
-13 -3 -33 8 -61 36 -23 23 -38 41 -34 41 5 0 1 5 -9 11 -9 6 -15 14 -12 19 3
4 -2 10 -10 14 -8 3 -15 12 -15 19 0 8 -9 24 -20 37 -11 12 -17 26 -15 30 3 5
1 10 -4 12 -5 1 -11 12 -13 23 -1 11 -9 26 -15 33 -7 7 -13 22 -13 33 0 13 -4
18 -12 13 -7 -5 -8 -3 -3 6 4 7 3 15 -4 19 -6 4 -12 19 -13 33 -1 15 -6 24
-10 22 -4 -3 -8 4 -8 15 0 11 -4 23 -10 26 -5 3 -10 15 -10 26 0 10 -3 19 -8
19 -6 0 -26 48 -35 85 -5 19 -18 35 -30 35 -7 0 -6 -4 3 -10 8 -5 10 -10 4
-10 -6 0 -11 -7 -11 -15 0 -8 3 -15 6 -15 3 0 7 -23 9 -52 1 -29 6 -55 10 -58
4 -3 9 -16 11 -30 2 -14 4 -30 5 -37 1 -7 5 -16 9 -19 4 -4 7 -20 7 -35 0 -15
5 -31 11 -35 6 -3 9 -15 6 -25 -3 -11 0 -19 6 -19 6 0 8 -3 4 -6 -3 -4 3 -24
14 -45 11 -22 17 -39 13 -39 -4 0 -1 -6 5 -13 6 -8 8 -17 4 -20 -3 -4 -1 -7 5
-7 7 0 12 -7 12 -15 0 -8 5 -15 12 -15 6 0 9 -3 5 -6 -6 -6 12 -43 48 -99 31
-49 115 -127 131 -121 8 3 19 -4 25 -15 7 -14 14 -18 21 -11 5 5 22 7 37 3 14
-4 37 -6 51 -5 14 1 31 -3 38 -8 6 -6 12 -7 12 -4 0 13 38 -29 40 -44 5 -37
-1 -70 -17 -86 -10 -10 -17 -20 -16 -23 5 -11 -50 -90 -59 -85 -4 3 -8 -2 -8
-10 0 -8 -12 -24 -26 -35 -15 -12 -24 -21 -20 -21 4 0 -18 -25 -49 -55 -31
-30 -54 -55 -52 -55 3 0 -21 -27 -53 -60 -33 -34 -67 -74 -77 -90 -9 -17 -21
-30 -25 -30 -4 0 -8 -5 -8 -11 0 -6 -9 -23 -20 -39 -11 -15 -17 -30 -13 -33 3
-4 -1 -9 -10 -13 -9 -3 -13 -12 -10 -21 3 -8 1 -18 -5 -22 -6 -3 -13 -19 -16
-34 -3 -15 -9 -39 -12 -54 -4 -16 -7 -43 -8 -60 0 -18 -4 -33 -7 -33 -3 0 -7
-12 -8 -27 -3 -44 -9 -98 -11 -103 -1 -3 -2 -9 -1 -14 1 -5 -4 -13 -11 -17
-10 -7 -10 -9 1 -9 11 0 11 -3 1 -15 -7 -8 -9 -15 -5 -15 4 0 2 -7 -5 -15 -7
-8 -10 -15 -7 -15 3 0 0 -15 -8 -34 -8 -18 -11 -36 -8 -40 4 -3 1 -6 -6 -6 -7
0 -9 -4 -6 -10 3 -5 1 -10 -4 -10 -6 0 -11 -6 -11 -14 0 -8 -13 -39 -29 -69
-16 -31 -27 -58 -23 -61 3 -3 0 -6 -7 -6 -7 0 -9 -4 -6 -10 3 -5 1 -10 -4 -10
-6 0 -11 -9 -11 -21 0 -13 -4 -18 -12 -13 -7 4 -10 4 -6 0 3 -4 0 -26 -8 -48
-7 -22 -11 -44 -8 -49 3 -5 1 -8 -4 -7 -6 2 -10 0 -11 -5 0 -4 -7 -22 -14 -40
-8 -17 -13 -40 -11 -50 1 -9 -2 -15 -7 -11 -5 3 -10 0 -10 -5 -2 -12 -5 -26
-9 -38 -1 -5 -2 -11 -1 -15 0 -5 -4 -8 -11 -8 -6 0 -9 -3 -5 -6 3 -4 0 -19 -8
-34 -8 -15 -11 -30 -8 -34 4 -3 2 -6 -4 -6 -6 0 -21 -19 -33 -42 -23 -44 -93
-118 -113 -118 -5 0 -7 -3 -4 -6 13 -13 -40 -49 -65 -45 -5 0 -7 -2 -5 -7 1
-4 -8 -17 -21 -30 -12 -12 -22 -17 -22 -10 0 6 -12 -2 -26 -18 -15 -16 -23
-23 -19 -16 6 11 3 11 -14 0 -12 -7 -21 -17 -21 -21 0 -5 -7 -7 -15 -3 -8 3
-15 2 -15 -2 0 -4 -22 -7 -49 -7 -27 0 -47 3 -44 8 2 4 -4 7 -14 7 -21 0 -83
50 -83 68 0 7 -5 12 -12 12 -6 0 -9 3 -5 6 3 3 0 26 -8 50 -7 24 -9 42 -5 39
4 -3 2 14 -5 38 -6 23 -10 48 -8 55 3 6 0 12 -7 12 -6 0 -8 5 -5 10 3 6 1 10
-5 10 -6 0 -8 5 -5 10 4 6 2 16 -3 23 -8 11 -23 59 -22 72 0 3 -6 13 -15 21
-8 9 -13 20 -10 25 3 5 0 19 -7 31 -6 13 -13 30 -14 38 -2 8 -8 16 -14 18 -5
2 -7 8 -4 13 3 6 0 16 -6 24 -6 8 -9 19 -6 24 4 5 2 12 -4 16 -6 4 -8 11 -5
16 4 5 2 9 -3 9 -9 0 -10 7 -13 55 -1 14 -6 28 -11 31 -6 4 -5 10 3 14 10 7
10 12 0 23 -9 11 -9 17 -1 22 8 5 6 13 -7 27 -9 11 -13 19 -8 18 21 -5 25 1
15 20 -6 12 -7 20 -1 20 5 0 7 9 4 21 -4 12 0 25 8 30 10 6 10 9 2 9 -7 0 -13
7 -13 16 0 9 5 12 11 8 8 -5 9 -2 2 10 -5 9 -7 38 -4 64 13 103 1 263 -19 270
-6 2 -8 8 -4 13 3 5 0 9 -5 9 -6 0 -10 3 -9 8 4 11 -26 72 -35 72 -5 0 -5 4
-2 10 3 6 1 10 -5 10 -6 0 -8 5 -5 10 3 5 1 10 -5 10 -6 0 -8 4 -5 10 3 6 1
10 -5 10 -6 0 -8 5 -5 10 3 6 2 10 -4 10 -5 0 -8 9 -6 19 2 11 -2 22 -9 24 -8
3 -12 17 -11 31 2 14 0 26 -4 26 -8 0 -10 10 -13 65 -1 19 -5 35 -9 35 -4 0
-6 9 -4 20 2 11 0 20 -4 20 -4 0 -7 10 -6 23 1 12 -6 34 -16 49 -11 14 -19 31
-19 38 0 6 -4 9 -9 5 -6 -3 -13 0 -18 7 -5 8 -33 13 -76 14 -37 1 -73 6 -80
10 -6 5 -39 9 -72 9 -33 0 -63 5 -67 10 -5 6 -8 6 -8 -1 0 -6 -13 -9 -31 -6
-24 4 -30 2 -24 -8 6 -10 4 -11 -6 -4 -8 5 -22 7 -33 5 -13 -2 -16 1 -10 11 6
10 5 11 -8 1 -8 -7 -18 -10 -21 -6 -4 3 -7 1 -7 -5 0 -7 -10 -8 -30 -2 -16 5
-32 5 -35 0 -3 -4 -16 -7 -30 -5 -14 1 -25 -3 -25 -9 0 -6 -5 -4 -10 4 -6 10
-10 11 -10 3 0 -9 -7 -10 -25 -3 -14 5 -25 7 -25 4 0 -4 -7 0 -16 7 -9 7 -23
14 -31 15 -18 3 -73 60 -73 76 0 6 -3 8 -6 5 -4 -4 -18 15 -32 41 -14 26 -30
50 -36 54 -6 5 -7 8 -1 8 6 0 2 5 -8 11 -9 6 -15 14 -12 20 4 5 1 9 -5 9 -6 0
-9 4 -6 9 3 5 0 11 -8 14 -7 3 -17 18 -21 34 -3 15 -12 31 -18 35 -9 6 -9 8 1
8 10 0 10 5 2 20 -6 11 -8 20 -5 20 3 0 1 9 -5 20 -8 15 -8 20 2 20 8 0 9 3 3
8 -12 9 -15 29 -18 172 -2 63 1 123 5 133 6 11 5 17 -3 17 -8 0 -8 4 1 15 7 8
9 15 5 15 -4 0 -2 7 5 15 7 8 10 15 6 15 -3 0 -1 11 4 25 7 18 6 25 -3 25 -9
0 -8 3 1 9 7 4 15 14 16 22 7 35 28 72 56 99 32 32 110 76 110 63 0 -5 5 0 11
10 6 9 14 15 19 12 5 -3 11 -1 15 5 4 6 12 7 18 4 7 -4 9 -4 5 0 -3 4 10 23
29 41 19 18 32 38 29 44 -4 6 -2 11 4 11 6 0 8 5 5 10 -3 6 -1 10 4 10 6 0 10
3 10 8 -4 22 2 63 9 59 4 -3 8 11 9 30 1 19 7 41 13 48 7 8 9 19 5 25 -3 5 -2
10 4 10 5 0 13 9 16 21 8 25 75 90 86 84 4 -3 10 2 13 11 8 21 8 26 -2 20 -11
-7 -92 33 -92 45 0 5 -3 8 -7 7 -29 -7 -94 58 -76 76 3 3 1 6 -5 6 -7 0 -12 5
-12 11 0 5 6 7 13 3 7 -5 6 0 -3 11 -12 14 -12 19 -2 23 10 3 8 8 -5 19 -10 8
-12 11 -4 7 9 -4 12 -2 9 7 -3 8 -1 24 3 37 6 15 5 21 -1 17 -11 -7 -9 23 3
43 5 7 3 12 -3 12 -6 0 -8 5 -4 12 4 7 9 23 10 37 2 13 9 28 15 32 11 6 114 6
129 -1 3 -1 8 -2 13 -1 4 0 7 -2 7 -7 0 -4 15 -8 33 -10 17 -1 47 -3 66 -4 31
-3 35 0 38 26 4 28 -13 85 -28 96 -4 3 -9 14 -11 25 -1 10 -11 28 -20 40 -10
11 -25 28 -33 38 -8 9 -15 18 -14 20 2 9 -14 36 -20 33 -4 -3 -7 6 -7 19 0 13
4 21 8 19 4 -3 8 0 8 7 0 8 11 9 38 4 47 -10 86 -8 90 5 2 6 7 8 12 5 4 -3 13
2 20 10 7 8 19 15 26 15 8 0 14 5 14 10 0 6 7 10 15 10 9 0 18 7 21 15 4 8 10
12 15 9 5 -3 9 -1 9 4 0 5 12 15 27 23 25 13 105 85 102 92 -5 6 13 47 21 47
4 0 11 11 14 25 4 14 11 23 16 20 6 -4 13 1 16 9 3 9 10 13 15 10 5 -3 9 -1 9
5 0 12 49 40 79 44 11 2 23 6 26 9 3 3 25 -3 48 -15 23 -11 48 -20 55 -20 6 0
12 -5 12 -10 0 -5 6 -7 14 -4 7 3 19 0 25 -6 6 -6 11 -8 11 -4 0 3 12 2 26 -3
18 -7 23 -7 18 2 -4 7 -3 8 4 4 21 -13 52 -15 52 -4 0 7 6 6 15 -2 12 -10 15
-10 15 0 0 7 7 10 15 6 8 -3 15 0 15 6 0 7 5 6 15 -2 12 -10 16 -9 21 4 3 9
10 16 16 16 5 0 6 -6 2 -12 -5 -8 0 -7 12 2 30 24 88 90 78 90 -4 0 -1 6 5 13
6 8 8 17 4 20 -3 4 -1 7 5 7 7 0 12 5 12 12 0 6 18 35 39 63 22 29 37 55 34
59 -4 3 -1 6 5 6 7 0 12 5 12 11 0 5 -4 7 -10 4 -5 -3 -7 0 -4 9 3 8 -8 35
-25 60 -17 24 -31 51 -31 58 0 8 -5 19 -12 26 -7 7 -8 12 -4 12 5 0 2 8 -5 17
-8 9 -9 14 -3 10 10 -6 10 2 5 76 -1 4 -8 7 -16 7 -13 0 -47 -50 -44 -66 0 -4
-3 -10 -8 -13 -15 -11 -34 -52 -28 -61 4 -6 0 -10 -7 -10 -9 0 -9 -3 2 -10 12
-7 12 -10 1 -10 -7 0 -11 -6 -8 -15 4 -8 3 -17 -2 -19 -4 -3 -9 -20 -10 -38
-2 -42 -8 -83 -11 -83 -1 0 -4 -16 -6 -35 -3 -19 -8 -42 -11 -50 -3 -8 -7 -17
-8 -20 -8 -30 -18 -50 -26 -51 -19 -3 -24 -5 -36 -12 -7 -5 -17 -6 -22 -3 -5
4 -12 0 -14 -6 -4 -10 -6 -9 -6 1 -1 11 -4 11 -16 1 -12 -10 -16 -9 -21 3 -3
9 -13 13 -25 10 -10 -3 -19 0 -19 6 0 5 -7 8 -15 5 -8 -4 -15 -2 -15 2 0 5
-18 20 -40 33 -21 14 -37 28 -34 32 2 4 -4 6 -13 5 -10 -2 -24 4 -31 13 -10
12 -12 12 -6 1 6 -12 5 -13 -7 -3 -12 10 -70 24 -106 26 -7 0 -13 4 -13 9 0 5
-3 7 -8 4 -4 -2 -16 1 -27 7 -18 11 -23 20 -28 52 -1 6 -6 13 -12 18 -6 4 -5
11 5 16 8 6 11 13 7 17 -4 4 -1 14 7 23 8 9 14 19 13 22 -4 14 69 89 86 89 10
0 15 5 12 10 -3 6 -2 10 3 10 5 0 26 14 47 30 21 17 34 30 29 30 -4 0 1 7 12
15 10 8 16 15 12 15 -8 0 11 26 43 60 8 9 13 22 11 30 -3 7 0 10 7 6 10 -6 13
-1 10 20 0 3 10 14 22 25 12 10 19 19 14 19 -4 0 -1 7 6 16 7 9 18 26 24 38 7
11 17 20 23 19 7 -2 12 2 12 7 0 18 4 25 33 53 15 15 25 27 22 27 -9 0 60 62
97 87 20 14 45 23 55 22 10 -2 23 0 29 3 9 6 100 -43 139 -74 6 -5 24 -20 40
-33 17 -14 34 -25 38 -25 5 0 5 -5 1 -12 -4 -6 -3 -8 4 -4 6 3 23 -5 39 -19
46 -41 52 -45 60 -45 4 0 22 -14 40 -30 18 -17 37 -30 44 -30 7 0 10 -3 6 -6
-3 -4 1 -13 9 -21 12 -12 12 -18 2 -31 -11 -13 -11 -14 2 -7 8 4 -1 -8 -19
-28 -19 -21 -31 -37 -25 -37 5 0 3 -4 -4 -9 -19 -11 5 -61 30 -61 10 0 18 -4
18 -10 0 -6 9 -6 25 0 17 6 25 6 25 -1 0 -6 9 -8 19 -4 11 3 28 7 38 9 25 5
112 46 118 56 5 8 -26 48 -83 106 -18 19 -31 34 -29 34 2 0 -25 30 -60 68 -36
37 -70 66 -76 64 -7 -2 -9 0 -5 4 8 8 -118 134 -134 134 -5 0 -6 5 -3 10 3 6
2 10 -4 10 -6 0 -28 18 -51 41 -22 22 -40 37 -40 33 0 -4 -8 2 -17 13 -10 11
-28 25 -41 32 -13 7 -20 17 -16 24 4 7 4 9 0 5 -8 -7 -18 0 -57 35 -10 9 -23
17 -27 17 -4 0 -25 15 -45 34 -20 18 -37 32 -37 29 0 -2 -10 5 -22 17 -12 11
-27 20 -34 20 -6 0 -14 7 -18 15 -3 9 -12 12 -22 8 -12 -4 -15 -3 -10 5 4 8
-2 16 -18 22 -14 5 -34 18 -46 30 -11 11 -21 20 -22 19 -8 -3 -58 26 -58 33 0
5 -4 7 -9 3 -6 -3 -14 3 -20 12 -5 10 -11 16 -13 14 -6 -7 -88 39 -88 50 0 6
-5 7 -11 3 -6 -3 -14 -2 -18 2 -3 5 -25 18 -48 28 -24 11 -43 23 -43 28 0 5
-4 7 -9 3 -5 -3 -17 2 -25 11 -9 8 -16 12 -16 8 0 -3 -6 -2 -13 4 -10 9 -19 7
-37 -5z m-767 -889 c15 -3 25 -9 22 -14 -3 -4 5 -6 16 -3 15 4 27 0 36 -13 8
-10 17 -17 21 -16 13 7 62 -33 57 -46 -3 -7 -1 -11 4 -8 5 3 11 -3 14 -14 3
-11 2 -18 -3 -15 -4 3 -11 -2 -14 -11 -3 -8 -10 -13 -14 -10 -5 3 -18 -3 -28
-12 -10 -10 -31 -17 -46 -17 -16 1 -28 -1 -28 -5 0 -4 -19 -7 -42 -8 -23 -1
-51 -5 -61 -8 -12 -4 -17 -2 -13 4 4 7 -3 8 -24 2 -18 -5 -32 -5 -36 1 -3 6
-12 5 -22 -3 -9 -7 -13 -8 -10 -3 3 6 -11 19 -32 29 -25 12 -37 23 -33 32 3 8
0 14 -5 14 -6 0 -9 9 -7 20 2 11 0 20 -5 20 -14 0 11 52 32 70 19 16 168 26
221 14z m491 -496 c-6 -10 -5 -10 7 -1 11 9 22 8 47 -4 18 -9 30 -18 27 -21
-2 -3 0 -11 6 -19 6 -7 8 -13 3 -13 -5 0 -3 -4 5 -9 8 -5 15 -20 15 -33 1 -12
6 -29 10 -37 7 -11 6 -12 -5 -6 -12 7 -12 6 -1 -7 7 -9 14 -50 16 -95 1 -44 6
-85 10 -91 4 -7 2 -12 -3 -12 -6 0 -11 -6 -11 -13 0 -18 -34 -49 -43 -40 -4 3
-7 -2 -8 -13 0 -10 -3 -14 -5 -7 -4 8 -14 9 -35 3 -20 -6 -29 -5 -30 3 0 9 -2
8 -6 0 -3 -9 -10 -10 -24 -3 -10 6 -19 8 -19 4 0 -3 -6 -1 -13 5 -8 6 -17 8
-20 4 -4 -3 -7 -1 -7 4 0 12 -18 12 -36 0 -6 -3 -14 -3 -18 0 -13 13 -37 11
-43 -3 -3 -8 -9 -11 -14 -8 -5 3 -9 0 -9 -6 0 -6 -4 -8 -10 -5 -5 3 -10 1 -10
-5 0 -7 -7 -10 -15 -6 -8 3 -15 2 -15 -3 0 -10 -31 -8 -49 4 -10 6 -12 4 -7
-6 4 -8 -1 -4 -12 8 -11 12 -23 19 -27 15 -5 -4 -4 0 1 8 5 8 9 17 10 20 3 17
20 47 33 62 9 9 21 23 27 30 22 26 70 63 94 73 25 11 45 11 87 1 20 -4 21 -2
13 20 -7 17 -6 24 3 25 9 0 9 2 0 6 -7 2 -13 9 -13 14 0 6 5 7 11 3 8 -4 8 -1
1 13 -8 15 -6 27 9 52 11 18 18 36 14 39 -3 3 7 14 22 24 16 10 24 18 18 18
-5 0 -3 5 5 10 20 13 23 12 14 -2z m2483 -1763 c0 -8 -4 -12 -9 -9 -5 3 -6 10
-3 15 9 13 12 11 12 -6z m-455 -1818 c6 -12 5 -17 -4 -17 -9 0 -9 -3 2 -10 8
-5 10 -10 5 -10 -6 0 -12 -11 -13 -24 -1 -13 -7 -37 -13 -52 -7 -16 -11 -33
-10 -38 1 -5 -3 -12 -10 -16 -6 -4 -11 -19 -11 -34 0 -14 -4 -24 -8 -21 -4 3
-11 -11 -14 -30 -4 -20 -11 -33 -16 -30 -4 3 -7 -3 -5 -12 1 -10 -6 -29 -15
-43 -10 -14 -19 -29 -20 -35 -6 -24 -24 -55 -32 -55 -5 0 -7 -4 -3 -9 3 -6 -3
-14 -12 -20 -10 -6 -14 -11 -10 -11 8 0 -40 -70 -58 -82 -7 -5 -7 -8 0 -8 6 0
6 -3 -1 -8 -6 -4 -16 -16 -22 -27 -6 -11 -12 -14 -12 -7 0 7 -4 10 -10 7 -9
-5 -12 1 -9 21 0 4 -5 10 -12 15 -10 6 -10 11 2 25 9 11 9 15 2 10 -16 -9 -16
-1 -2 26 8 15 8 19 0 14 -8 -5 -8 0 -2 16 4 13 7 33 6 46 -1 12 3 22 9 22 6 0
4 5 -4 10 -9 6 -10 10 -3 10 6 0 10 9 8 20 -2 11 -1 22 3 24 4 3 7 17 6 33 0
15 5 34 13 41 7 8 10 19 6 25 -3 7 -3 9 1 5 8 -7 18 0 56 34 10 9 28 22 40 28
12 6 19 14 16 17 -3 3 3 18 14 33 11 15 17 30 13 34 -3 3 -1 6 5 6 7 0 12 6
12 14 0 16 45 66 60 66 5 0 10 4 10 9 0 15 32 6 42 -12z"/>
<path d="M2420 7462 c-8 -14 -9 -14 -10 -2 0 10 -3 11 -8 4 -8 -12 -112 -64
-126 -63 -5 0 -12 -5 -17 -13 -5 -7 -12 -14 -16 -14 -27 -5 -53 -18 -53 -27 0
-6 -3 -7 -7 -4 -3 4 -12 2 -20 -4 -7 -6 -13 -8 -13 -5 0 4 -7 0 -16 -8 -8 -9
-19 -14 -24 -11 -4 3 -11 -2 -14 -11 -3 -8 -10 -12 -16 -9 -5 3 -10 1 -10 -5
0 -6 -5 -8 -10 -5 -6 3 -13 -1 -16 -9 -3 -9 -10 -13 -15 -10 -6 3 -17 0 -25
-7 -9 -7 -23 -14 -32 -16 -9 -1 -18 -7 -20 -13 -2 -5 -8 -8 -13 -4 -5 3 -12
-1 -15 -10 -3 -8 -11 -13 -19 -10 -7 3 -20 -2 -29 -11 -9 -9 -20 -14 -24 -11
-5 3 -14 -4 -22 -14 -8 -10 -17 -17 -21 -15 -4 3 -13 -3 -20 -12 -12 -14 -12
-16 1 -9 10 5 10 3 -2 -6 -9 -8 -17 -23 -19 -33 -3 -22 29 -105 40 -105 4 0 8
-6 8 -12 0 -7 21 -57 46 -110 26 -54 47 -101 47 -106 0 -5 7 -15 15 -22 8 -7
13 -16 10 -20 -3 -4 4 -19 15 -33 11 -14 20 -32 20 -40 0 -8 8 -18 18 -22 27
-12 82 -14 88 -4 3 5 10 7 15 4 5 -4 9 -1 9 5 0 6 5 8 10 5 6 -3 10 -1 10 6 0
7 3 10 6 6 4 -3 13 1 21 9 8 8 19 12 24 9 5 -4 9 -1 9 5 0 6 5 8 10 5 6 -3 10
-1 10 5 0 6 5 8 10 5 6 -3 10 -1 10 4 0 6 6 11 14 11 8 0 42 16 75 34 34 19
61 33 61 30 0 -3 7 2 16 10 8 9 20 14 25 11 5 -4 9 -1 9 5 0 6 5 8 10 5 6 -3
13 1 16 9 3 9 10 14 14 11 5 -3 15 2 24 10 8 9 18 16 21 15 28 -2 35 1 29 12
-5 8 -2 9 9 5 10 -3 17 -3 17 2 0 8 38 24 53 22 4 -1 7 3 7 9 0 6 8 10 18 10
21 1 63 36 86 71 14 22 15 31 5 55 -7 16 -12 32 -11 37 1 4 -3 7 -9 7 -6 0 -9
6 -6 14 3 8 3 16 -1 18 -14 6 -52 90 -45 100 3 6 2 8 -4 5 -5 -3 -15 11 -22
31 -8 20 -18 43 -24 51 -6 7 -12 20 -14 29 -1 9 -6 18 -12 20 -5 2 -7 10 -4
18 3 8 -1 14 -8 14 -7 0 -10 3 -6 6 3 4 -1 13 -9 21 -8 8 -12 18 -10 22 2 3
-3 17 -13 29 -22 30 -96 39 -111 14z"/>
<path d="M3620 7248 c0 -4 -7 -8 -15 -8 -8 0 -15 -5 -15 -12 0 -6 -3 -9 -6 -5
-4 3 -21 -1 -38 -10 -17 -10 -34 -16 -38 -15 -5 1 -8 -3 -8 -9 0 -6 -9 -9 -20
-6 -11 3 -17 1 -14 -4 5 -9 -63 -45 -78 -41 -5 1 -8 -2 -8 -7 0 -5 -11 -12
-25 -15 -14 -4 -23 -11 -20 -16 3 -5 0 -7 -8 -5 -7 3 -30 -6 -51 -20 -20 -14
-34 -20 -30 -13 5 7 -5 3 -20 -10 -16 -12 -35 -22 -42 -22 -7 0 -20 -7 -28
-16 -9 -8 -16 -13 -16 -10 0 8 -103 -46 -112 -59 -4 -5 -8 -6 -8 -1 0 5 -11
-2 -24 -16 -31 -30 -38 -68 -20 -103 8 -15 14 -34 14 -41 0 -8 5 -14 11 -14 5
0 8 -4 5 -9 -3 -5 1 -14 10 -21 8 -7 13 -19 10 -27 -3 -8 1 -16 8 -19 8 -3 16
-18 19 -33 3 -16 12 -35 19 -42 7 -8 14 -22 16 -32 2 -10 14 -37 26 -60 13
-23 27 -53 31 -66 10 -34 53 -74 70 -67 8 3 15 1 15 -4 0 -6 5 -10 11 -10 5 0
7 5 4 10 -4 6 5 10 19 10 14 0 26 4 26 10 0 5 3 9 8 8 4 -1 18 4 32 12 14 7
26 11 27 9 1 -2 11 4 23 13 11 10 20 15 20 13 0 -3 10 0 23 7 12 7 25 11 30
10 4 -1 7 2 7 7 0 5 10 13 23 17 12 3 31 14 41 23 16 13 18 13 11 1 -7 -12 -5
-12 11 1 10 9 38 24 62 35 23 10 42 22 42 27 0 4 4 6 9 2 5 -3 16 2 25 10 8 9
18 16 20 16 18 0 66 22 66 30 0 5 3 8 8 7 10 -2 65 24 73 35 3 5 9 8 13 8 18
-3 26 0 24 7 -2 4 1 7 5 7 13 0 36 47 37 73 0 12 -5 22 -10 22 -6 0 -9 3 -8 8
3 12 -25 82 -34 82 -4 0 -7 3 -6 8 1 4 -3 17 -10 30 -7 12 -9 22 -5 22 4 0 2
4 -6 9 -8 5 -16 15 -17 23 -3 18 -21 57 -44 96 -11 17 -18 32 -15 32 7 0 -48
104 -63 119 -15 16 -92 23 -92 9z"/>
<path d="M5005 7210 c-10 -11 -20 -18 -22 -16 -2 2 -38 -14 -79 -35 -41 -22
-80 -36 -86 -33 -7 4 -8 2 -4 -4 4 -7 1 -12 -9 -12 -10 0 -13 -5 -9 -12 4 -6
3 -8 -3 -5 -5 3 -21 0 -36 -8 -15 -8 -27 -11 -27 -7 0 3 -7 -3 -15 -14 -8 -10
-15 -16 -15 -12 0 4 -25 -6 -55 -22 -31 -17 -62 -30 -70 -30 -8 0 -12 -6 -9
-14 4 -11 0 -13 -15 -9 -13 3 -21 1 -21 -6 0 -7 -4 -10 -9 -6 -5 3 -16 -2 -24
-10 -9 -8 -19 -15 -24 -15 -12 0 -98 -44 -101 -53 -2 -4 -8 -5 -13 -1 -5 3 -9
0 -9 -5 0 -6 -3 -10 -7 -9 -10 2 -86 -34 -94 -45 -3 -5 -9 -8 -13 -8 -20 3
-26 0 -20 -11 4 -7 4 -10 -1 -6 -4 4 -29 -4 -56 -17 -46 -24 -48 -26 -46 -66
2 -28 -2 -43 -13 -49 -10 -6 -11 -9 -2 -10 8 0 10 -9 6 -27 -5 -27 -16 -148
-15 -185 0 -10 -6 -18 -12 -18 -8 0 -7 -3 2 -9 9 -6 10 -10 2 -16 -9 -5 -9
-10 0 -21 6 -8 7 -14 2 -14 -6 0 -10 -23 -9 -50 1 -28 -2 -50 -6 -50 -5 0 -6
-10 -4 -22 2 -13 -1 -31 -6 -40 -6 -13 -5 -18 4 -18 8 0 9 -3 3 -8 -6 -4 -11
-35 -12 -70 0 -34 -6 -69 -13 -76 -7 -10 -8 -16 0 -21 5 -3 10 -15 10 -26 0
-11 5 -17 10 -14 6 3 10 0 10 -8 0 -7 11 -35 25 -62 13 -27 21 -53 18 -58 -3
-6 -1 -7 5 -3 8 5 12 0 12 -13 0 -12 4 -21 10 -21 5 0 9 -3 8 -7 -2 -12 44
-113 51 -113 4 0 7 -10 8 -22 1 -11 7 -24 14 -28 6 -4 8 -13 5 -19 -4 -6 -4
-11 1 -11 4 0 16 -14 25 -31 10 -16 14 -27 9 -24 -5 3 -4 -6 2 -20 7 -14 16
-25 20 -25 5 0 5 -4 2 -10 -3 -5 -1 -10 5 -10 6 0 8 -4 5 -10 -3 -5 -1 -10 4
-10 6 0 11 -9 11 -19 0 -11 5 -23 11 -26 6 -4 8 -14 5 -22 -3 -8 -2 -12 3 -9
7 5 20 -19 36 -64 8 -24 71 -146 77 -148 4 -2 4 -10 1 -18 -3 -8 0 -14 7 -14
6 0 8 -4 5 -10 -3 -5 -1 -10 5 -10 6 0 8 -4 5 -10 -3 -5 -1 -10 4 -10 6 0 11
-3 10 -7 -2 -16 14 -53 23 -53 5 0 7 -4 3 -9 -3 -5 2 -16 10 -25 9 -8 16 -19
17 -23 0 -4 4 -18 9 -31 5 -13 9 -28 9 -33 0 -5 5 -9 12 -9 6 0 8 -3 5 -6 -3
-4 0 -16 8 -28 8 -11 15 -28 15 -38 0 -10 4 -18 9 -18 9 0 22 -28 27 -58 1 -8
11 -20 21 -29 10 -8 13 -12 7 -9 -5 2 -1 -15 10 -38 22 -48 51 -73 62 -54 5 7
3 8 -6 3 -9 -5 -11 -4 -6 3 4 7 16 12 27 12 10 0 19 5 19 10 0 6 3 10 8 9 15
-2 52 14 52 23 0 5 5 6 10 3 6 -3 10 -1 10 5 0 7 7 9 15 6 9 -3 18 1 21 9 4 8
10 13 14 10 5 -3 16 2 24 11 9 9 23 13 31 10 8 -3 14 0 12 6 -1 7 7 14 18 16
11 2 26 12 33 21 7 9 11 10 7 4 -10 -20 2 -15 26 10 12 12 19 16 15 10 -6 -11
50 13 64 27 3 3 12 6 20 8 8 2 23 11 34 20 10 9 19 15 20 14 0 -2 13 2 28 9
15 6 25 15 23 20 -3 4 3 5 14 2 11 -3 27 4 41 19 13 12 20 17 15 10 -6 -11 -3
-11 16 0 13 7 27 17 30 22 4 5 11 6 17 2 6 -3 14 0 19 7 9 14 73 43 86 39 5
-1 6 2 2 8 -6 9 7 14 28 11 4 0 7 4 7 10 0 6 6 9 14 6 8 -3 17 1 20 10 4 8 12
13 20 10 7 -3 19 3 26 13 8 11 17 17 21 14 5 -3 26 7 49 21 22 14 40 22 40 18
0 -5 7 1 15 11 10 13 15 15 15 6 0 -10 4 -9 13 4 7 9 19 18 27 19 8 2 26 10
40 19 14 9 32 18 40 20 8 2 21 10 28 18 11 12 12 12 6 1 -5 -9 5 -6 23 7 17
12 36 22 42 22 6 0 11 5 11 10 0 6 3 9 8 8 10 -4 125 53 133 65 4 5 12 6 18 3
6 -4 11 -4 11 1 0 4 29 21 65 38 36 16 65 33 65 38 0 5 9 7 19 4 15 -4 18 0
16 19 -1 13 -8 30 -15 39 -7 8 -9 15 -4 15 5 0 2 6 -6 13 -8 7 -17 21 -18 32
-2 11 -12 34 -23 51 -10 17 -16 34 -12 37 3 4 1 7 -5 7 -7 0 -12 9 -12 20 0
11 -4 20 -10 20 -5 0 -10 9 -10 20 0 11 -4 20 -10 20 -5 0 -10 9 -10 20 0 11
-5 20 -11 20 -5 0 -7 5 -4 10 3 6 2 10 -4 10 -6 0 -8 7 -5 15 4 8 2 15 -2 15
-5 0 -15 15 -22 33 -8 17 -23 52 -35 77 -12 24 -21 48 -20 52 2 4 -1 8 -6 8
-8 0 -24 37 -22 53 1 4 -4 7 -10 7 -6 0 -9 7 -5 15 3 8 1 15 -4 15 -6 0 -10 7
-10 15 0 8 -5 15 -11 15 -5 0 -8 4 -4 9 3 5 -2 16 -10 25 -9 8 -16 18 -15 21
1 26 -2 35 -10 30 -5 -3 -10 1 -10 9 0 8 -19 54 -42 102 -23 48 -41 93 -41
100 0 7 -7 16 -14 18 -8 3 -11 10 -8 16 3 5 1 10 -5 10 -6 0 -9 4 -6 9 3 5 -1
12 -10 15 -8 3 -13 10 -10 15 8 12 -14 61 -27 61 -6 0 -8 3 -5 6 4 3 0 17 -7
31 -8 15 -12 30 -9 35 3 4 1 8 -4 8 -8 0 -23 35 -19 43 1 2 -6 11 -16 21 -9
10 -15 22 -12 27 4 5 2 9 -3 9 -9 0 -25 37 -23 53 1 4 -4 7 -11 7 -6 0 -8 3
-5 6 4 4 -3 15 -15 25 -11 11 -17 19 -12 19 5 0 -9 10 -31 21 -22 12 -41 25
-43 30 -2 5 -8 9 -13 9 -10 0 -90 50 -99 62 -3 3 -12 8 -20 10 -8 2 -23 12
-33 23 -10 11 -16 14 -12 5 4 -8 -1 -6 -10 5 -9 11 -20 19 -25 18 -4 -1 -16 7
-25 17 -10 11 -24 20 -32 20 -7 0 -13 5 -13 12 0 6 -3 9 -6 5 -6 -5 -15 0 -49
31 -8 7 -15 10 -15 5 0 -4 -4 -3 -8 2 -4 6 -29 25 -57 43 -27 17 -55 35 -61
40 -28 24 -51 31 -64 19 -10 -9 -11 -9 -6 1 11 18 1 15 -19 -8z"/>
<path d="M1558 7032 c-10 -2 -18 -7 -18 -12 0 -4 -8 -7 -17 -6 -10 2 -26 -6
-35 -17 -10 -11 -18 -17 -18 -14 0 4 -26 -7 -59 -23 -32 -17 -64 -30 -70 -30
-6 0 -11 -4 -11 -9 0 -8 -37 -24 -52 -22 -5 1 -8 -3 -8 -9 0 -6 -7 -10 -15
-10 -8 0 -15 -5 -15 -11 0 -5 -4 -8 -9 -5 -13 8 -42 -4 -35 -15 3 -5 -2 -9
-11 -9 -17 0 -56 -20 -66 -33 -3 -5 -8 -7 -10 -5 -8 6 -128 -56 -123 -64 3 -4
-1 -5 -9 -2 -8 3 -22 -2 -31 -11 -9 -9 -16 -13 -16 -8 -1 4 -8 -4 -16 -19 -8
-16 -19 -28 -23 -28 -13 0 2 -58 28 -107 12 -24 18 -43 14 -43 -5 0 -3 -4 2
-8 15 -10 35 -49 35 -67 0 -8 5 -15 10 -15 6 0 10 -7 10 -15 0 -17 20 -56 34
-66 5 -4 5 -12 2 -18 -4 -6 -2 -11 4 -11 6 0 8 -4 5 -10 -3 -5 -1 -10 4 -10 6
0 11 -7 11 -15 0 -8 4 -15 9 -15 6 0 8 -9 6 -19 -2 -11 3 -22 12 -25 9 -4 13
-9 10 -13 -4 -3 3 -14 15 -24 25 -22 32 -24 22 -6 -4 6 1 5 10 -4 14 -13 23
-14 51 -5 19 6 35 14 35 18 0 4 7 5 15 2 8 -4 15 -1 15 4 0 10 26 23 44 21 5
0 12 5 17 12 4 7 15 14 25 15 9 2 20 6 23 11 3 4 13 9 21 11 8 2 17 8 18 13 2
5 8 7 13 3 5 -3 9 0 9 6 0 6 4 9 9 5 5 -3 15 1 23 8 7 7 15 14 18 14 3 0 24
10 48 22 23 12 47 19 52 16 5 -3 12 4 15 16 4 11 9 18 12 15 4 -3 13 0 21 7
13 10 14 9 7 -3 -6 -11 -3 -10 12 3 11 9 25 17 31 17 7 0 12 5 12 10 0 6 3 10
8 9 15 -2 52 14 52 22 0 5 9 9 20 9 11 0 20 5 20 10 0 6 7 10 15 10 8 0 15 5
15 11 0 5 3 8 8 6 10 -7 28 15 27 33 0 8 3 18 8 21 5 4 2 20 -7 36 -8 17 -12
33 -9 37 4 3 1 6 -6 6 -7 0 -9 5 -6 10 3 6 1 10 -4 10 -6 0 -11 7 -11 16 0 9
-8 23 -17 31 -10 8 -13 12 -6 9 6 -4 2 13 -11 36 -12 24 -28 59 -36 78 -8 19
-18 38 -22 41 -5 3 -10 16 -11 27 -1 12 -5 22 -9 22 -4 0 -8 7 -8 15 0 8 -5
15 -11 15 -5 0 -7 5 -4 10 3 6 2 10 -4 10 -6 0 -8 7 -5 15 4 8 2 15 -4 15 -5
0 -12 9 -15 20 -3 13 -10 18 -21 14 -9 -3 -16 -2 -16 3 0 9 -22 11 -52 5z"/>
<path d="M2755 6810 c-4 -6 -10 -8 -15 -5 -5 3 -16 -3 -26 -12 -10 -10 -20
-18 -23 -17 -14 2 -41 -9 -41 -16 0 -5 -13 -11 -29 -15 -15 -3 -37 -14 -47
-23 -11 -9 -25 -17 -31 -18 -29 -2 -34 -4 -29 -12 2 -4 -5 -9 -16 -9 -12 -1
-25 -8 -29 -15 -5 -7 -9 -8 -9 -3 0 6 -6 3 -13 -5 -7 -8 -16 -15 -22 -15 -11
-1 -67 -27 -75 -35 -3 -3 -34 -18 -70 -35 -36 -16 -68 -34 -71 -38 -3 -4 -15
-9 -27 -10 -11 0 -19 -4 -16 -8 2 -4 -6 -11 -18 -15 -26 -7 -58 -38 -58 -54 0
-5 -6 -10 -12 -10 -8 0 -9 -3 -3 -8 6 -4 12 -18 13 -31 2 -13 10 -30 17 -38 8
-7 12 -22 10 -33 -3 -13 2 -20 12 -20 9 0 13 -3 10 -6 -3 -4 -1 -16 5 -28 7
-11 11 -24 10 -28 -1 -5 3 -8 8 -8 6 0 10 -7 10 -15 0 -8 9 -29 20 -47 11 -18
20 -41 20 -51 0 -11 4 -15 12 -11 8 5 9 2 5 -9 -3 -10 -2 -17 4 -17 6 0 7 -4
4 -10 -3 -5 -1 -10 4 -10 6 0 11 -9 11 -20 0 -11 5 -20 10 -20 6 0 10 -8 10
-17 1 -22 25 -55 33 -46 4 3 7 2 7 -4 0 -6 7 -14 16 -17 10 -4 13 -2 8 7 -5 9
-4 9 5 1 16 -15 53 -6 44 10 -4 6 0 6 9 -2 13 -10 17 -10 22 3 3 9 10 13 16
10 5 -3 10 -2 10 4 0 5 14 12 30 16 17 4 30 11 30 17 0 6 6 8 14 5 8 -3 17 1
20 10 4 9 9 13 13 10 3 -4 19 3 34 14 16 11 29 17 29 14 0 -3 14 3 30 15 17
12 30 18 30 15 0 -3 13 3 29 14 15 11 31 18 35 14 3 -3 6 -1 6 5 0 7 9 12 20
12 11 0 20 5 20 10 0 6 9 10 21 10 13 0 18 4 13 12 -5 8 -2 9 9 5 10 -3 17 -2
17 4 0 6 5 7 10 4 6 -3 10 -1 10 5 0 6 4 9 9 6 5 -4 11 -3 13 1 1 5 30 22 63
38 33 17 69 39 80 50 25 25 26 71 3 113 -10 18 -18 39 -18 47 0 8 -4 15 -9 15
-5 0 -12 11 -15 25 -4 14 -11 25 -17 25 -6 0 -7 4 -4 10 3 5 -2 21 -11 35 -9
14 -13 25 -9 25 3 0 -1 7 -9 16 -9 8 -14 20 -11 25 4 5 1 9 -4 9 -6 0 -11 9
-11 20 0 11 -4 20 -9 20 -5 0 -11 13 -14 29 -3 16 -13 36 -22 44 -8 9 -15 22
-15 29 0 8 -14 22 -31 32 -18 11 -29 13 -24 6 6 -9 3 -10 -13 -1 -14 7 -23 8
-27 1z"/>
<path d="M687 6592 c-9 -2 -15 -8 -12 -13 3 -5 0 -6 -8 -3 -8 3 -40 -9 -71
-26 -32 -17 -61 -28 -67 -25 -5 4 -12 -1 -15 -9 -3 -8 -16 -18 -27 -22 -12 -3
-29 -12 -37 -19 -8 -8 -19 -14 -25 -14 -22 -2 -45 -13 -45 -22 0 -5 -3 -8 -7
-7 -8 2 -103 -42 -113 -52 -3 -3 -10 -6 -15 -7 -6 -1 -39 -18 -74 -37 -34 -20
-67 -34 -71 -31 -4 3 -10 -2 -14 -10 -3 -8 -12 -15 -21 -15 -8 0 -15 -4 -15
-10 0 -5 -7 -10 -15 -10 -9 0 -12 -6 -8 -17 4 -11 3 -14 -5 -9 -7 4 -12 4 -13
-1 0 -4 -2 -16 -4 -25 -2 -10 1 -18 6 -18 5 0 9 -5 9 -11 0 -5 -6 -7 -12 -3
-7 4 -5 -2 5 -13 9 -11 14 -23 10 -26 -3 -4 1 -7 11 -7 9 0 14 -4 11 -10 -3
-5 4 -27 15 -50 11 -22 17 -40 13 -40 -4 0 1 -6 12 -13 10 -8 15 -19 11 -25
-3 -5 -3 -12 1 -14 9 -4 51 -86 55 -108 2 -8 11 -23 21 -34 9 -11 17 -26 17
-34 0 -21 40 -73 51 -67 5 4 9 2 9 -3 0 -13 53 -8 58 6 2 7 8 10 13 7 5 -3 19
0 31 7 13 7 26 11 31 10 4 -1 7 2 7 7 0 5 14 12 30 16 17 4 30 10 30 15 0 9
49 25 65 21 5 -2 7 1 3 5 -5 4 31 26 78 48 47 23 82 45 77 49 -4 5 0 5 10 2 9
-4 23 0 33 9 8 9 20 14 25 11 5 -4 9 0 9 8 0 10 7 13 20 10 12 -3 20 0 20 6 0
7 5 9 10 6 6 -3 10 -2 10 4 0 5 10 13 23 17 12 3 31 14 41 23 16 13 18 13 11
1 -5 -8 11 1 36 21 56 46 63 87 24 149 -15 23 -21 39 -13 34 7 -4 5 2 -4 13
-10 11 -18 27 -18 36 0 9 -4 17 -10 17 -5 0 -10 9 -10 19 0 11 -5 23 -11 26
-6 4 -8 14 -5 22 3 8 2 12 -3 9 -11 -7 -23 22 -14 36 3 7 1 8 -5 4 -7 -4 -14
4 -18 21 -4 15 -16 40 -26 55 -11 16 -16 32 -13 38 3 5 2 10 -3 10 -5 0 -13
10 -19 23 -11 24 -57 45 -86 39z"/>
<path d="M1890 6373 c-8 -3 -22 -7 -30 -10 -8 -4 -18 -5 -22 -5 -5 1 -8 -6 -9
-15 0 -11 -3 -13 -6 -5 -3 9 -11 8 -31 -6 -26 -18 -63 -35 -71 -32 -2 1 -7 -2
-10 -7 -3 -5 -24 -17 -46 -27 -22 -10 -47 -24 -55 -32 -8 -7 -17 -12 -20 -12
-15 3 -49 -15 -45 -23 3 -5 -1 -6 -9 -3 -9 3 -23 -1 -32 -10 -8 -9 -20 -14
-25 -11 -5 4 -9 2 -9 -2 0 -9 -59 -37 -72 -34 -5 0 -8 -3 -8 -9 0 -5 -7 -10
-15 -10 -8 0 -15 -5 -15 -12 0 -6 -3 -8 -6 -5 -7 7 -98 -38 -121 -60 -7 -6
-13 -16 -13 -22 0 -6 -4 -11 -8 -11 -16 0 -6 -55 17 -105 13 -27 23 -53 23
-57 -1 -5 3 -8 10 -8 6 0 8 -3 5 -6 -3 -4 5 -26 19 -50 14 -24 23 -44 19 -44
-3 0 3 -12 14 -26 11 -15 18 -30 15 -35 -3 -5 0 -9 5 -9 6 0 11 -7 11 -15 0
-8 9 -29 20 -47 11 -18 20 -39 20 -47 0 -7 11 -24 25 -37 14 -13 25 -18 25
-11 0 8 3 8 8 2 9 -14 41 -12 69 3 12 7 29 12 37 12 9 0 16 4 16 9 0 12 56 31
66 23 4 -4 4 -1 0 6 -4 7 -1 12 9 12 10 0 13 5 9 12 -4 7 -3 8 4 4 10 -6 65
17 82 34 3 3 12 6 20 8 8 2 17 8 18 13 2 5 7 7 12 4 5 -3 16 3 26 12 10 10 19
17 21 15 6 -5 63 22 63 30 0 4 7 5 15 2 8 -4 17 1 21 10 3 9 10 14 14 11 4 -3
13 2 20 10 7 8 16 12 21 9 5 -3 9 0 9 6 0 6 5 8 10 5 6 -3 10 -1 10 5 0 6 4 9
9 5 5 -3 16 1 24 9 8 8 18 12 21 8 4 -3 10 -2 14 4 4 5 22 20 40 33 18 12 30
27 27 32 -4 5 -2 9 3 9 5 0 9 14 10 30 0 17 -4 30 -9 30 -5 0 -9 9 -9 20 0 11
-5 20 -11 20 -5 0 -7 5 -4 10 3 6 1 10 -4 10 -6 0 -11 3 -10 8 2 14 -13 52
-22 52 -4 0 -6 9 -4 20 2 11 0 18 -6 15 -7 -5 -13 9 -7 18 1 1 -11 21 -25 45
-15 23 -25 42 -22 42 3 0 0 10 -7 23 -7 12 -12 26 -13 30 0 4 -6 11 -13 16 -8
5 -14 12 -14 17 -2 24 -21 64 -31 64 -7 0 -5 5 3 10 13 8 13 10 -2 11 -26 2
-32 4 -43 10 -5 4 -17 4 -25 2z"/>
<path d="M3029 6131 c-19 -10 -41 -21 -49 -26 -8 -6 -18 -10 -22 -10 -4 0 -16
-7 -26 -16 -10 -8 -23 -14 -30 -11 -7 2 -15 -3 -18 -12 -3 -8 -11 -13 -19 -10
-7 3 -19 -2 -28 -10 -8 -8 -17 -12 -21 -9 -3 4 -6 1 -6 -5 0 -7 -7 -12 -15
-12 -8 0 -15 -4 -15 -10 0 -5 -7 -7 -15 -4 -8 4 -15 1 -15 -5 0 -6 -12 -11
-26 -11 -14 0 -23 -4 -19 -10 3 -5 -13 -14 -35 -21 -22 -7 -40 -18 -40 -25 0
-7 -8 -10 -20 -7 -12 3 -20 0 -20 -7 0 -7 -7 -10 -15 -6 -8 3 -15 0 -15 -7 0
-7 -10 -13 -22 -14 -12 -1 -26 -10 -31 -19 -8 -13 -11 -14 -18 -3 -7 11 -10 9
-15 -8 -4 -13 -10 -20 -16 -17 -8 5 -57 -38 -58 -51 0 -3 0 -6 -1 -7 -6 -21
-5 -39 2 -44 5 -3 7 -9 4 -14 -3 -4 2 -10 10 -14 8 -3 12 -12 9 -21 -3 -8 -1
-15 6 -15 6 0 8 -4 5 -10 -3 -5 -1 -10 5 -10 6 0 8 -4 5 -10 -3 -5 -1 -10 5
-10 6 0 9 -4 5 -9 -3 -5 -1 -12 5 -16 5 -3 10 -13 10 -21 0 -9 7 -22 15 -30 8
-9 15 -24 15 -35 0 -11 7 -22 15 -25 8 -4 15 -15 15 -26 0 -11 13 -44 29 -73
16 -29 27 -56 24 -59 -4 -3 -1 -6 6 -6 7 0 9 -4 6 -10 -3 -5 -1 -10 5 -10 6 0
8 -5 4 -12 -4 -7 -3 -8 4 -4 7 4 17 4 24 0 17 -11 68 -12 68 -2 0 4 9 8 20 8
11 0 20 5 20 11 0 5 4 8 9 5 5 -3 14 1 21 9 7 8 16 13 20 10 5 -3 16 2 24 11
9 8 16 12 16 8 0 -4 9 1 21 12 12 10 22 17 23 15 2 -6 81 34 89 47 4 6 13 12
20 12 7 0 6 -4 -3 -10 -8 -5 -11 -10 -7 -10 5 0 20 9 34 20 14 11 32 20 39 20
8 0 14 5 14 11 0 5 5 7 10 4 6 -3 10 -1 10 5 0 6 5 8 10 5 6 -3 10 -1 10 4 0
6 7 11 15 11 19 0 58 21 68 38 4 6 15 12 24 12 19 0 135 61 128 68 -2 3 2 10
11 16 17 13 26 64 12 72 -10 7 -44 86 -40 97 1 4 -2 7 -6 7 -5 0 -17 20 -27
44 -10 25 -22 43 -27 40 -4 -3 -5 2 -2 11 4 9 -1 23 -9 33 -8 9 -19 29 -22 45
-4 15 -11 27 -17 27 -5 0 -7 4 -3 9 3 5 -3 17 -12 27 -10 10 -16 18 -14 18 2
1 0 12 -4 26 -17 53 -83 71 -146 41z"/>
<path d="M968 5918 c-7 -7 -20 -14 -28 -16 -8 -2 -18 -8 -21 -14 -3 -5 -8 -9
-10 -7 -10 6 -49 -14 -43 -22 3 -5 2 -9 -3 -8 -16 4 -63 -13 -63 -23 0 -5 -4
-7 -9 -4 -4 3 -19 -3 -31 -14 -27 -23 -34 -25 -25 -7 4 6 1 5 -7 -3 -7 -8 -20
-16 -28 -18 -8 -2 -18 -8 -21 -14 -4 -6 -12 -7 -18 -4 -6 4 -14 0 -17 -8 -3
-9 -15 -16 -25 -16 -10 0 -19 -4 -19 -10 0 -5 -3 -9 -7 -8 -10 2 -106 -44
-114 -55 -3 -5 -9 -8 -13 -8 -19 3 -27 0 -22 -7 2 -4 -5 -9 -17 -9 -12 -1 -27
-10 -34 -19 -6 -9 -16 -13 -22 -9 -6 3 -11 -1 -11 -11 0 -10 -3 -14 -7 -10 -4
4 -14 -8 -23 -26 -16 -32 -16 -34 21 -109 21 -42 36 -79 33 -81 -2 -3 2 -11
11 -18 8 -7 15 -21 15 -31 0 -11 5 -19 10 -19 6 0 10 -9 10 -20 0 -11 5 -20
11 -20 5 0 8 -4 4 -9 -3 -5 3 -17 12 -27 10 -10 17 -19 15 -21 -5 -6 22 -63
30 -63 4 0 5 -6 2 -14 -3 -7 2 -21 11 -30 9 -9 14 -20 11 -24 -3 -5 0 -9 7 -9
7 -1 29 -4 50 -8 20 -3 37 -2 37 2 0 5 10 9 22 10 11 1 24 6 27 11 3 5 23 15
44 21 20 7 35 17 32 22 -4 5 3 9 15 9 12 0 28 7 37 15 8 8 19 13 24 10 5 -4 9
-1 9 5 0 6 4 9 9 5 6 -3 14 2 19 11 5 9 11 14 13 12 5 -3 91 33 99 42 7 9 43
24 53 22 4 -1 7 2 7 8 0 6 9 10 19 10 11 0 21 4 23 9 2 5 10 11 18 13 8 2 18
7 21 11 3 4 15 9 27 10 11 0 18 5 16 9 -5 7 10 12 29 9 4 0 7 3 7 8 0 5 14 14
30 20 17 5 30 15 30 20 0 6 6 11 13 11 8 0 14 6 14 13 0 6 4 21 9 31 6 15 4
17 -7 11 -11 -6 -11 -5 -2 5 9 9 6 23 -13 57 -13 25 -21 49 -18 54 3 5 1 9 -5
9 -6 0 -13 11 -17 25 -3 14 -11 25 -17 25 -6 0 -7 3 -4 7 4 3 -1 15 -10 26
-10 11 -12 17 -5 13 17 -10 15 -1 -4 18 -8 9 -16 25 -17 36 -1 11 -7 20 -14
20 -7 0 -12 3 -12 8 4 21 -2 42 -10 38 -5 -4 -8 2 -7 11 2 10 -3 24 -11 31 -7
8 -11 18 -8 23 4 5 1 9 -6 9 -7 0 -10 3 -6 6 8 8 -18 34 -33 34 -6 0 -9 4 -6
9 7 11 -45 8 -63 -3 -10 -6 -12 -5 -7 2 9 16 1 15 -16 0z"/>
<path d="M2156 5694 c-10 -7 -23 -11 -29 -7 -6 3 -7 1 -3 -5 4 -7 1 -12 -8
-12 -8 0 -22 -7 -30 -16 -9 -8 -16 -13 -16 -9 0 3 -29 -10 -65 -30 -36 -19
-65 -32 -65 -28 0 4 -12 -4 -27 -18 -14 -13 -23 -18 -19 -12 5 9 2 11 -8 7 -9
-3 -16 -10 -16 -14 0 -5 -16 -14 -35 -20 -19 -6 -35 -16 -35 -21 0 -6 -4 -8
-9 -5 -5 3 -21 -4 -37 -16 -15 -13 -25 -17 -20 -10 10 16 1 15 -16 -2 -20 -19
-98 -58 -98 -49 0 5 -5 0 -11 -10 -6 -9 -14 -15 -20 -12 -5 4 -9 1 -9 -6 0 -7
-3 -9 -7 -6 -8 9 -50 -36 -58 -64 -4 -12 -3 -24 1 -28 5 -3 11 -15 12 -26 2
-11 9 -23 15 -27 7 -4 9 -8 5 -8 -3 0 4 -20 18 -46 13 -25 24 -52 24 -60 0 -7
5 -14 10 -14 6 0 10 -6 10 -13 0 -7 10 -33 22 -58 12 -24 21 -47 20 -51 -1 -5
3 -8 8 -8 6 0 10 -9 10 -20 0 -11 5 -20 10 -20 6 0 10 -9 10 -20 0 -11 5 -20
10 -20 6 0 10 -7 10 -16 0 -21 25 -45 50 -47 11 -1 20 -5 20 -10 0 -5 6 -4 13
2 8 6 17 8 20 4 4 -3 7 0 7 7 0 7 3 10 6 7 4 -4 31 7 60 23 30 16 54 26 54 22
0 -4 4 -2 8 3 4 6 39 26 77 45 39 18 72 38 73 42 2 4 7 6 12 3 5 -3 14 0 22 7
7 7 20 14 28 16 8 2 18 8 21 14 3 5 9 10 12 10 19 0 47 12 47 20 0 5 5 6 10 3
6 -3 10 -1 10 5 0 6 4 9 9 5 5 -3 12 -1 16 5 4 6 11 8 16 5 5 -4 9 -2 9 2 0 5
27 21 60 36 60 28 113 73 104 89 -3 4 -1 8 5 8 12 0 -7 62 -23 72 -6 4 -7 8
-2 8 5 0 3 7 -4 15 -7 8 -9 15 -6 15 4 0 1 7 -8 15 -8 9 -13 22 -10 30 4 10 0
15 -12 15 -9 0 -14 3 -11 6 3 4 1 16 -5 28 -7 11 -13 23 -13 26 0 3 -6 15 -13
28 -7 12 -9 22 -5 22 4 0 0 5 -9 11 -10 5 -15 16 -12 24 4 8 1 15 -5 15 -6 0
-11 9 -11 20 0 11 -4 20 -10 20 -5 0 -10 6 -10 13 0 18 -24 67 -32 67 -5 0 -8
6 -8 14 0 17 -41 29 -54 16 -5 -5 -16 -5 -25 0 -10 5 -23 3 -35 -6z"/>
<path d="M9773 5395 c-6 -7 -9 -16 -6 -19 4 -3 0 -6 -8 -6 -8 0 -22 -9 -32
-20 -9 -11 -14 -20 -11 -20 4 0 0 -7 -7 -16 -7 -9 -14 -23 -16 -32 -1 -9 -6
-18 -11 -20 -9 -3 -8 -55 2 -71 4 -5 3 -12 -2 -15 -10 -6 -9 -56 1 -72 6 -11
18 -58 19 -81 1 -7 5 -13 10 -13 5 0 7 -4 3 -9 -3 -5 1 -15 8 -23 8 -7 13 -21
11 -31 -1 -9 2 -17 7 -17 5 0 9 -7 9 -15 0 -18 20 -57 35 -67 7 -5 7 -8 0 -8
-5 0 -4 -4 4 -9 21 -14 44 18 28 38 -9 11 -9 13 -1 8 7 -4 14 1 17 12 4 15 1
18 -12 13 -14 -5 -14 -3 -3 10 10 13 11 22 2 37 -7 14 -7 21 -1 21 7 0 7 9 1
26 -13 32 -13 37 1 28 8 -4 8 -1 1 12 -12 23 -10 173 2 193 6 10 5 12 -2 7 -7
-4 -12 -3 -12 3 0 5 5 13 10 16 6 4 8 11 4 16 -3 5 0 17 7 25 10 12 9 13 -6 8
-14 -6 -16 -4 -9 7 11 18 13 59 2 59 -4 0 -8 6 -8 14 0 19 -23 26 -37 11z"/>
<path d="M9113 5374 c3 -4 -1 -13 -9 -21 -24 -24 -115 -163 -107 -163 4 0 -2
-7 -13 -15 -10 -8 -15 -15 -10 -15 5 0 3 -7 -4 -15 -7 -8 -9 -15 -4 -15 5 0 2
-5 -6 -10 -13 -8 -12 -10 3 -10 10 0 16 -4 13 -8 -2 -4 4 -9 15 -9 10 -1 19 2
19 6 0 5 11 6 25 3 15 -2 25 0 25 7 0 6 5 11 11 11 5 0 8 -4 5 -9 -4 -5 11 -1
31 9 21 10 45 16 55 15 10 -2 18 0 18 6 0 5 11 9 24 9 14 0 28 5 31 10 5 8 11
7 21 -1 11 -9 14 -9 14 0 0 7 5 9 10 6 6 -3 10 -1 10 6 0 8 4 8 15 -1 8 -7 15
-8 15 -3 0 10 41 10 58 -1 7 -4 12 -2 12 4 0 7 14 3 34 -9 l33 -21 -3 27 c-1
14 -14 36 -28 48 -14 12 -23 25 -20 28 4 3 -5 9 -20 13 -14 3 -26 10 -26 15 0
5 -7 6 -15 3 -8 -4 -15 -1 -15 6 0 8 -9 11 -25 8 -13 -3 -22 -2 -20 3 3 4 -8
7 -24 7 -17 -1 -37 5 -46 12 -8 7 -15 9 -15 5 0 -4 -13 7 -29 24 -15 16 -31
27 -35 24 -3 -3 -6 -1 -6 5 0 7 -5 12 -12 12 -6 0 -9 -3 -5 -6z"/>
<path d="M8516 5311 c-3 -5 1 -14 9 -21 8 -7 12 -17 9 -22 -7 -11 37 -98 49
-98 5 0 6 -4 3 -9 -3 -5 5 -20 19 -35 13 -14 21 -26 18 -26 -3 0 0 -6 6 -13 6
-8 8 -17 4 -20 -3 -4 0 -7 7 -7 10 0 9 -5 -3 -18 -10 -10 -14 -21 -11 -24 3
-4 -4 -9 -15 -13 -12 -3 -19 -11 -16 -16 4 -5 0 -9 -7 -9 -7 -1 -29 -14 -48
-30 -19 -17 -40 -30 -48 -30 -7 0 -10 -4 -7 -10 4 -6 -6 -10 -23 -10 -17 0
-32 6 -35 13 -8 21 3 81 16 89 6 4 8 8 3 8 -5 0 -4 6 2 13 6 6 12 17 14 22 1
6 7 9 12 7 5 -2 4 3 -2 11 -7 8 -9 17 -5 20 3 4 0 7 -7 7 -7 0 -11 3 -7 6 9 9
-26 44 -45 44 -9 0 -24 9 -32 21 -8 12 -19 18 -25 15 -5 -4 -15 3 -21 14 -6
11 -14 18 -19 16 -4 -3 -25 11 -47 30 -21 19 -45 39 -52 45 -9 8 -61 8 -100 0
-2 -1 0 -6 3 -12 4 -6 1 -10 -6 -8 -27 3 -40 -1 -34 -11 3 -5 -1 -10 -10 -10
-9 0 -13 -4 -10 -10 3 -5 1 -10 -5 -10 -17 0 -189 -160 -173 -160 5 0 -1 -7
-11 -15 -11 -8 -16 -15 -12 -15 5 0 -2 -9 -15 -20 -13 -10 -20 -19 -16 -20 12
0 -20 -30 -32 -30 -6 0 -10 -3 -10 -7 3 -17 -1 -33 -8 -32 -21 3 -34 -2 -31
-13 4 -12 58 -20 58 -8 0 3 26 4 57 3 161 -7 185 -10 194 -24 5 -8 9 -9 9 -3
0 6 7 11 15 11 8 0 15 -4 15 -8 0 -4 6 -7 13 -6 32 1 47 -4 47 -16 0 -7 9 -19
20 -27 11 -8 20 -20 20 -27 0 -7 5 -13 11 -13 5 0 7 -4 4 -10 -3 -5 1 -10 9
-10 9 0 15 -3 14 -7 -5 -17 120 -146 133 -138 4 3 9 1 11 -4 9 -26 120 -28
146 -3 7 6 19 12 25 12 7 0 27 14 46 30 18 17 38 30 43 30 5 0 7 4 3 9 -3 5 4
12 15 16 11 3 20 11 20 17 0 6 11 8 25 6 13 -3 22 -1 19 3 -6 10 25 0 42 -12
6 -5 15 -5 19 -1 5 4 5 1 1 -5 -5 -9 7 -18 33 -29 23 -9 41 -21 41 -26 0 -6 7
-8 15 -4 8 3 15 0 15 -6 0 -6 3 -8 7 -5 3 4 12 2 20 -4 7 -6 13 -8 13 -4 0 4
6 2 14 -4 7 -6 31 -13 52 -16 22 -2 54 -7 72 -9 24 -4 31 -2 26 7 -5 9 -4 9 6
0 26 -24 97 36 84 71 -4 9 -1 16 6 16 9 0 9 4 -1 17 -8 9 -9 14 -3 10 7 -4 10
14 9 56 -1 52 -4 62 -18 61 -9 -1 -15 2 -12 6 8 13 -18 18 -39 8 -13 -7 -16
-7 -11 1 4 8 -2 10 -19 7 -14 -3 -26 -1 -26 3 0 3 -9 7 -20 8 -11 1 -26 8 -33
15 -13 13 -32 66 -29 81 1 4 -3 7 -9 7 -8 0 -8 4 -1 13 13 17 -3 57 -24 57
-13 0 -14 -3 -5 -13 6 -8 8 -17 4 -21 -13 -13 -14 -56 -1 -56 9 0 9 -3 -2 -10
-12 -8 -13 -13 -2 -30 7 -11 9 -20 4 -20 -4 0 -12 -10 -17 -22 -18 -40 -42
-33 -106 32 -33 34 -58 64 -55 67 3 4 -3 12 -14 20 -11 8 -20 19 -20 24 0 6
-7 17 -15 26 -8 8 -12 19 -9 25 4 7 2 8 -4 4 -7 -4 -12 -1 -12 8 0 9 -4 16
-10 16 -5 0 -10 7 -10 15 0 8 -4 15 -10 15 -5 0 -10 5 -10 11 0 6 -7 17 -15
26 -8 8 -12 19 -9 25 4 7 2 8 -4 4 -7 -4 -12 -1 -12 8 0 9 -4 16 -10 16 -5 0
-10 6 -10 13 0 11 -56 77 -65 77 -2 0 -6 -4 -9 -9z"/>
<path d="M1308 5259 c-10 -5 -18 -7 -18 -4 0 3 -24 -8 -53 -25 -30 -16 -57
-27 -60 -23 -4 3 -7 1 -7 -5 0 -7 -7 -12 -15 -12 -8 0 -15 -5 -15 -11 0 -5 -4
-7 -10 -4 -5 3 -10 1 -10 -5 0 -7 -7 -9 -15 -6 -9 3 -18 -1 -21 -9 -4 -8 -15
-15 -25 -15 -10 0 -19 -5 -19 -12 0 -6 -3 -8 -7 -5 -3 4 -14 0 -24 -9 -10 -9
-25 -14 -34 -11 -8 4 -14 1 -12 -6 1 -7 -6 -11 -15 -11 -10 1 -18 -1 -18 -6 0
-7 -40 -28 -51 -26 -4 0 -16 -7 -26 -17 -11 -9 -23 -14 -26 -10 -4 3 -7 1 -7
-6 0 -7 -4 -10 -9 -6 -5 3 -13 1 -16 -5 -4 -6 -24 -18 -46 -27 -21 -8 -39 -19
-39 -25 0 -5 -4 -7 -9 -4 -5 4 -23 -8 -40 -25 -32 -32 -40 -46 -18 -33 9 6 9
4 1 -7 -13 -18 -12 -27 9 -66 9 -18 17 -41 17 -51 0 -11 7 -22 15 -26 8 -3 15
-14 15 -25 0 -11 7 -27 16 -36 9 -9 14 -19 11 -22 -3 -3 1 -12 9 -20 8 -8 12
-19 9 -24 -4 -5 -1 -9 5 -9 6 0 8 -4 5 -10 -3 -5 -1 -10 5 -10 6 0 8 -4 5 -10
-3 -5 -1 -10 5 -10 7 0 9 -7 6 -15 -3 -9 1 -18 9 -21 8 -4 13 -10 10 -14 -3
-5 2 -16 11 -24 8 -9 13 -16 9 -16 -3 0 0 -10 7 -22 7 -13 11 -27 10 -31 -1
-5 2 -6 8 -2 5 3 10 2 10 -3 0 -14 46 -31 60 -22 7 4 19 6 27 3 7 -3 13 0 13
6 0 6 9 11 20 11 11 0 20 5 20 12 0 6 3 8 6 5 4 -4 20 3 35 14 16 11 33 17 39
14 5 -3 10 -2 10 3 0 5 18 17 40 27 22 10 40 22 40 28 0 5 7 4 15 -3 12 -10
15 -10 15 2 0 14 55 42 77 39 6 -1 19 9 27 21 9 12 16 19 16 14 0 -5 7 -3 15
4 8 6 18 9 24 6 5 -3 11 1 15 9 3 9 12 12 22 8 12 -4 15 -3 10 5 -5 8 3 14 23
18 17 4 36 13 42 20 6 8 20 14 30 14 11 0 19 5 19 10 0 6 6 10 13 10 21 0 67
43 67 62 0 9 4 18 10 20 6 2 4 14 -4 30 -8 15 -12 29 -8 32 3 3 0 6 -7 6 -8 0
-11 7 -7 15 3 8 -2 18 -10 23 -9 5 -15 12 -15 15 3 24 0 37 -9 32 -5 -3 -10 3
-10 14 0 12 -4 21 -9 21 -6 0 -8 9 -6 20 3 13 -2 20 -12 20 -9 0 -13 6 -10 14
3 8 -3 23 -14 35 -13 14 -15 21 -7 21 8 0 9 3 3 8 -13 9 -65 113 -65 130 0 6
-4 12 -10 12 -5 0 -10 7 -10 16 0 10 -6 14 -15 11 -8 -4 -17 -2 -21 4 -4 6
-12 5 -22 -3 -12 -10 -14 -10 -8 0 9 14 7 15 -16 1z"/>
<path d="M10153 4695 c0 -8 4 -12 9 -9 5 3 6 10 3 15 -9 13 -12 11 -12 -6z"/>
<path d="M10165 4639 c-4 -6 -5 -12 -2 -15 2 -3 7 2 10 11 7 17 1 20 -8 4z"/>
<path d="M10170 4601 c0 -6 4 -13 10 -16 6 -3 7 1 4 9 -7 18 -14 21 -14 7z"/>
<path d="M10180 4535 c10 -12 10 -15 0 -15 -8 0 -11 -3 -7 -6 3 -3 10 -3 16 0
12 8 3 36 -11 36 -6 0 -5 -6 2 -15z"/>
<path d="M10184 4445 c-1 -45 2 -55 13 -50 8 3 17 5 20 5 2 0 -3 7 -12 16 -13
14 -14 19 -3 25 9 6 10 9 1 9 -9 0 -10 7 -3 25 7 18 6 25 -3 25 -9 0 -13 -18
-13 -55z"/>
</g>
</svg>
